<?xml version="1.0" encoding="UTF-8" standalone="no"?>
<svg
   xmlns:dc="http://purl.org/dc/elements/1.1/"
   xmlns:cc="http://creativecommons.org/ns#"
   xmlns:rdf="http://www.w3.org/1999/02/22-rdf-syntax-ns#"
   xmlns:svg="http://www.w3.org/2000/svg"
   xmlns="http://www.w3.org/2000/svg"
   xmlns:sodipodi="http://sodipodi.sourceforge.net/DTD/sodipodi-0.dtd"
   xmlns:inkscape="http://www.inkscape.org/namespaces/inkscape"
   width="193mm"
   height="132mm"
   viewBox="0 0 193 132"
   version="1.1"
   id="svg8"
   shape-rendering="crispEdges"
   inkscape:version="1.0.2-2 (e86c870879, 2021-01-15)"
   sodipodi:docname="Blackhole2.svg">
  <defs
     id="defs2" />
  <sodipodi:namedview
     id="base"
     pagecolor="#ffffff"
     bordercolor="#666666"
     borderopacity="1.0"
     inkscape:pageopacity="0.0"
     inkscape:pageshadow="2"
     inkscape:zoom="0.98994949"
     inkscape:cx="666.36792"
     inkscape:cy="187.99266"
     inkscape:document-units="mm"
     inkscape:current-layer="layer1"
     inkscape:document-rotation="0"
     showgrid="false"
     inkscape:pagecheckerboard="false"
     inkscape:window-width="1800"
     inkscape:window-height="1106"
     inkscape:window-x="-11"
     inkscape:window-y="-11"
     inkscape:window-maximized="1" />
  <metadata
     id="metadata5">
    <rdf:RDF>
      <cc:Work
         rdf:about="">
        <dc:format>image/svg+xml</dc:format>
        <dc:type
           rdf:resource="http://purl.org/dc/dcmitype/StillImage" />
        <dc:title></dc:title>
      </cc:Work>
    </rdf:RDF>
  </metadata>
  <g
     inkscape:label="Ebene 1"
     inkscape:groupmode="layer"
     id="layer1">
    <path
       d="m 92.705324,73.922288 1.67955,1.28418 1.67952,1.28415 1.67953,1.28419 1.679517,1.28418 1.679559,1.28415 1.67953,1.28416 1.67952,1.28418 1.67952,1.28418 1.67955,1.28416 1.67952,1.28418 1.67953,1.28415 1.67952,1.28418 1.67955,1.28419 1.67952,1.28415 1.67952,1.28418 1.67955,1.28416 1.67952,1.28418 1.67952,1.28415 1.67952,1.28419 1.67955,1.28418 1.67953,1.284152 1.67952,1.28419 1.67952,1.28416 1.67955,1.28419 1.67952,1.28416 1.67952,1.28418 1.67952,1.28418 1.67955,1.28416 1.67952,1.28418 1.67953,1.28415 1.67952,1.28418 1.67955,1.28416 1.67952,1.28418 1.67952,1.28418 1.67952,1.28416 1.67955,1.28418 1.67952,1.28418 1.67953,1.28416 1.67952,1.28418 1.67955,1.28415 1.67952,1.28418 1.67952,1.28416 1.67955,1.28418 1.67952,1.28416 1.67952,1.28418 h 25.19294 V 3.2928959 h -25.19294 -1.67952 -1.67952 -1.67955 -1.67952 -1.67952 -1.67955 l -1.67952,0.33478 -1.67953,1.1068601 -1.67952,1.09998 -1.67955,1.09273 -1.67952,1.08508 -1.67952,1.07699 -1.67952,1.06849 -1.67955,1.05944 -1.67952,1.049921 -1.67953,1.03984 -1.67952,1.029151 -1.67955,1.01783 -1.67952,1.00586 -1.67952,0.99312 -1.67952,0.97967 -1.67955,0.96533 -1.67952,0.95017 -1.67952,0.93406 -1.67953,0.91694 -1.67955,0.89879 -1.67952,0.8795 -1.67952,0.859 -1.67952,0.83727 -1.67955,0.81423 -1.67952,0.78973 -1.67952,0.76383 -1.67955,0.73636 -1.67952,0.70728 -1.67953,0.67662 -1.67952,0.64424 -1.67955,0.61007 -1.67952,0.57425 -1.67952,0.53658 -1.67953,0.4972 -1.679559,0.45609 -1.679517,0.41331 -1.67953,0.36893 -1.67952,0.32309 -1.67955,0.27588 -1.67952,0.22746 -1.67952,0.17801 -1.67955,0.12774 -1.67952,0.0769 -1.67952,0.0257 -1.67953,-0.0257 -1.67954,-0.0769 -1.67953,-0.12774 -1.67952,-0.17801 -1.67952,-0.22746 -1.67952,-0.27588 -1.67955,-0.32309 -1.67952,-0.36893 -1.67952,-0.41331 -1.67953,-0.45609 -1.67955,-0.4972 -1.67952,-0.53658 -1.67952,-0.57425 -1.67955,-0.61007 -1.67952,-0.64424 -1.67952,-0.67662 -1.67952,-0.70728 -1.67955,-0.73636 -1.67952,-0.76383 -1.67953,-0.78973 -1.67955,-0.81423 -1.67952,-0.83727 -1.67952,-0.859 -1.67952,-0.8795 -1.67955,-0.89879 -1.67952,-0.91694 -1.67952,-0.93406 -1.67953,-0.95017 -1.67952,-0.96533 -1.67955,-0.97967 -1.67952,-0.99312 -1.67952,-1.00586 -1.67955,-1.01783 -1.67952,-1.029151 -1.67952,-1.03984 -1.67953,-1.049921 -1.67954,-1.05944 -1.67953,-1.06849 -1.67952,-1.07699 -1.67952,-1.08508 -1.67955,-1.09273 -1.67952,-1.09998 -1.679521,-1.1068601 -1.679531,-0.33478 H 8.7288822 7.0493525 5.3698325 3.6902825 2.0107624 0.33124241 l 1.67951999,1.28419 1.6795201,1.2841801 1.67955,1.28415 1.67952,1.28418 1.6795297,1.28416 1.6795398,1.28418 1.679531,1.284181 1.679521,1.28416 1.67952,1.284181 1.67955,1.28416 1.67952,1.28418 1.67952,1.28415 1.67953,1.28418 1.67954,1.28416 1.67953,1.28418 1.67952,1.28418 1.67952,1.28416 1.67955,1.28418 1.67952,1.28415 1.67952,1.28419 1.67955,1.28418 1.67952,1.28415 1.67953,1.28418 1.67952,1.28416 1.67952,1.28418 1.67955,1.28416 1.67952,1.28418 1.67952,1.28418 1.67952,1.28415 1.67955,1.28419 1.67953,1.28415 1.67952,1.28418 1.67955,1.28416 1.67952,1.28418 1.67952,1.28418 1.67952,1.28416 1.67955,1.28418 1.67952,1.28415 1.67952,1.28419 1.67955,1.28415 1.67953,1.28418 1.67952,1.28418 1.67952,1.28416 1.67955,1.28418 1.67952,1.28416 1.67952,1.28418 1.67952,1.28415 1.67953,1.28418 1.67954,1.28419 1.67953,1.28415 1.67952,1.28418 1.67952,1.28416 1.67955,1.28418 1.67952,1.28418 z"
       style="font-style:normal;font-weight:normal;font-size:12px;font-family:Dialog;color-interpolation:sRGB;fill:#f2f2f2;fill-opacity:1;stroke:none;stroke-width:0.264583;stroke-linecap:square;stroke-linejoin:miter;stroke-miterlimit:10;stroke-dasharray:none;stroke-dashoffset:0;stroke-opacity:1;color-rendering:optimizeSpeed;image-rendering:optimizeSpeed;shape-rendering:crispEdges;text-rendering:optimizeSpeed"
       id="path130" />
    <path
       d="m 12.087953,3.6276759 1.679521,1.1068601 1.67952,1.09998 1.67955,1.09273 1.67952,1.08508 1.67952,1.07699 1.67953,1.06849 1.67954,1.05944 1.67953,1.049921 1.67952,1.03984 1.67952,1.029151 1.67955,1.01783 1.67952,1.00586 1.67952,0.99312 1.67955,0.97967 1.67952,0.96533 1.67953,0.95017 1.67952,0.93406 1.67952,0.91694 1.67955,0.89879 1.67952,0.8795 1.67952,0.859 1.67952,0.83727 1.67955,0.81423 1.67953,0.78973 1.67952,0.76383 1.67955,0.73636 1.67952,0.70728 1.67952,0.67662 1.67952,0.64424 1.67955,0.61007 1.67952,0.57425 1.67952,0.53658 1.67955,0.4972 1.67953,0.45609 1.67952,0.41331 1.67952,0.36893 1.67955,0.32309 1.67952,0.27588 1.67952,0.22746 1.67952,0.17801 1.67953,0.12774 1.67954,0.0769 1.67953,0.0257 1.67952,-0.0257 1.67952,-0.0769 1.67955,-0.12774 1.67952,-0.17801 1.67952,-0.22746 1.67955,-0.27588 1.67952,-0.32309 1.67953,-0.36893 1.679517,-0.41331 1.679559,-0.45609 1.67953,-0.4972 1.67952,-0.53658 1.67952,-0.57425 1.67955,-0.61007 1.67952,-0.64424 1.67953,-0.67662 1.67952,-0.70728 1.67955,-0.73636 1.67952,-0.76383 1.67952,-0.78973 1.67955,-0.81423 1.67952,-0.83727 1.67952,-0.859 1.67952,-0.8795 1.67955,-0.89879 1.67953,-0.91694 1.67952,-0.93406 1.67952,-0.95017 1.67955,-0.96533 1.67952,-0.97967 1.67952,-0.99312 1.67952,-1.00586 1.67955,-1.01783 1.67952,-1.029151 1.67953,-1.03984 1.67952,-1.049921 1.67955,-1.05944 1.67952,-1.06849 1.67952,-1.07699 1.67952,-1.08508 1.67955,-1.09273 1.67952,-1.09998 1.67953,-1.1068601"
       style="font-style:normal;font-weight:normal;font-size:12px;font-family:Dialog;color-interpolation:linearRGB;fill:none;fill-opacity:1;fill-rule:evenodd;stroke:#000000;stroke-width:0.264583;stroke-linecap:butt;stroke-linejoin:round;stroke-miterlimit:10;stroke-dasharray:none;stroke-dashoffset:0;stroke-opacity:1;color-rendering:optimizeQuality;image-rendering:optimizeQuality;shape-rendering:auto;text-rendering:geometricPrecision"
       id="path134" />
    <path
       d="m 84.307694,67.501428 h 1.09169 1.0917 1.0917 1.0917 1.09167 1.09169 1.0917 1.0917 1.0917 1.09169 1.0917 1.0917 1.091667 1.091702 1.091687 1.09171 1.09171 1.09169 1.09168 1.09169 1.0917 1.0917 1.09169 1.0917 1.0917 1.0917 1.09169 1.0917 1.0917 1.09167 1.0917 1.09169 1.0917 1.0917 1.09167 1.0917 1.09169 1.0917 1.0917 1.0917 1.09169 1.0917 1.09167 1.0917 1.0917 1.09169 1.0917 1.0917 1.09169 1.0917 1.09167 1.0917 1.0917 1.09169 1.0917 1.09167 1.0917 1.0917 1.09169 1.0917 1.0917 1.0917 1.09169 1.0917 1.0917 1.0917 1.09167 1.09169 1.0917 1.0917 1.0917 1.09169 1.09167 1.0917 1.0917 1.0917 1.09169 1.0917 1.0917 1.09169 1.09168 1.09169 1.0917 1.0917 1.09169 1.0917 1.09167 1.0917 1.0917 1.09169 1.0917 1.0917 1.0917 1.09169 1.0917 1.0917 1.0917 1.09167 1.09169 1.0917"
       style="font-style:normal;font-weight:normal;font-size:12px;font-family:Dialog;color-interpolation:linearRGB;fill:none;fill-opacity:1;fill-rule:evenodd;stroke:#cccccc;stroke-width:0.264583;stroke-linecap:butt;stroke-linejoin:round;stroke-miterlimit:10;stroke-dasharray:none;stroke-dashoffset:0;stroke-opacity:1;color-rendering:optimizeQuality;image-rendering:optimizeQuality;shape-rendering:auto;text-rendering:geometricPrecision"
       id="path136" />
    <path
       d="m 84.307694,67.501428 v -1.43573 -1.43577 -1.43573 -1.43574 -1.43576 -1.43573 -1.43576 -1.43574 -1.43576 -1.43573 -1.43574 -1.43576 -1.43574 -1.43576 -1.43573 -1.43576 -1.43574 -1.43573 -1.43577 -1.43573 -1.43576 -1.43574 -1.43576 -1.43573 -1.43574 -1.43576 -1.43573 -1.43577 -1.43573 -1.43574 -1.43576 -1.43573 -1.43576 -1.43574 -1.43576 -1.43573 -1.43574 -1.435761 -1.435741 -1.43576 -1.43573 -1.43576 -1.43574 -1.4357601 -1.4357401 -1.43573 -1.43575986 -1.43573994 -1.43576 -1.43573"
       style="font-style:normal;font-weight:normal;font-size:12px;font-family:Dialog;color-interpolation:linearRGB;fill:none;fill-opacity:1;fill-rule:evenodd;stroke:#cccccc;stroke-width:0.264583;stroke-linecap:butt;stroke-linejoin:round;stroke-miterlimit:10;stroke-dasharray:none;stroke-dashoffset:0;stroke-opacity:1;color-rendering:optimizeQuality;image-rendering:optimizeQuality;shape-rendering:auto;text-rendering:geometricPrecision"
       id="path138" />
    <path
       style="font-style:normal;font-weight:normal;font-size:12px;font-family:Dialog;color-interpolation:linearRGB;fill:none;fill-opacity:1;fill-rule:evenodd;stroke:#000000;stroke-width:0.264583;stroke-linecap:butt;stroke-linejoin:bevel;stroke-miterlimit:1;stroke-dasharray:2.64583, 1.5875;stroke-dashoffset:0;stroke-opacity:1;color-rendering:optimizeQuality;image-rendering:optimizeQuality;shape-rendering:auto;text-rendering:geometricPrecision"
       d="m 84.307694,67.501428 1.67952,-1.28415 1.67952,-1.28419 1.67955,-1.28418 1.67952,-1.28415 1.67952,-1.28418 1.67955,-1.28416 1.67952,-1.28418 1.67953,-1.28416 1.679517,-1.28418 1.679559,-1.28418 1.67953,-1.28415 1.67952,-1.28419 1.67952,-1.28415 1.67955,-1.28418 1.67952,-1.28416 1.67953,-1.28418 1.67952,-1.28418 1.67955,-1.28416 1.67952,-1.28418 1.67952,-1.28415 1.67955,-1.28419 1.67952,-1.28415 1.67952,-1.28418 1.67952,-1.28418 1.67955,-1.28416 1.67953,-1.28418 1.67952,-1.28416 1.67952,-1.28418 1.67955,-1.28415 1.67952,-1.28418 1.67952,-1.28419 1.67952,-1.28415 1.67955,-1.28418 1.67952,-1.28416 1.67953,-1.28418 1.67952,-1.28418 1.67955,-1.28416 1.67952,-1.28418 1.67952,-1.28415 1.67952,-1.28418 1.67955,-1.28416 1.67952,-1.284181 1.67953,-1.28416 1.67952,-1.284181 1.67955,-1.28418 1.67952,-1.28416 1.67952,-1.28418 1.67955,-1.28415 1.67952,-1.2841801 1.67952,-1.28419"
       id="path140" />
    <path
       style="font-style:normal;font-weight:normal;font-size:12px;font-family:Dialog;color-interpolation:linearRGB;fill:none;fill-opacity:1;fill-rule:evenodd;stroke:#000000;stroke-width:0.264583;stroke-linecap:butt;stroke-linejoin:bevel;stroke-miterlimit:1;stroke-dasharray:0.0264583, 0.0264583;stroke-dashoffset:0;stroke-opacity:1;color-rendering:optimizeQuality;image-rendering:optimizeQuality;shape-rendering:auto;text-rendering:geometricPrecision"
       d="m 0.33124241,3.2928959 1.67951999,1.28419 1.6795201,1.2841801 1.67955,1.28415 1.67952,1.28418 1.6795297,1.28416 1.6795398,1.28418 1.679531,1.284181 1.679521,1.28416 1.67952,1.284181 1.67955,1.28416 1.67952,1.28418 1.67952,1.28415 1.67953,1.28418 1.67954,1.28416 1.67953,1.28418 1.67952,1.28418 1.67952,1.28416 1.67955,1.28418 1.67952,1.28415 1.67952,1.28419 1.67955,1.28418 1.67952,1.28415 1.67953,1.28418 1.67952,1.28416 1.67952,1.28418 1.67955,1.28416 1.67952,1.28418 1.67952,1.28418 1.67952,1.28415 1.67955,1.28419 1.67953,1.28415 1.67952,1.28418 1.67955,1.28416 1.67952,1.28418 1.67952,1.28418 1.67952,1.28416 1.67955,1.28418 1.67952,1.28415 1.67952,1.28419 1.67955,1.28415 1.67953,1.28418 1.67952,1.28418 1.67952,1.28416 1.67955,1.28418 1.67952,1.28416 1.67952,1.28418 1.67952,1.28415 1.67953,1.28418 1.67954,1.28419 1.67953,1.28415 1.67952,1.28418 1.67952,1.28416 1.67955,1.28418 1.67952,1.28418 1.67952,1.28416 1.67955,1.28418 1.67952,1.28415 1.67953,1.28419 1.679517,1.28418 1.679559,1.28415 1.67953,1.28416 1.67952,1.28418 1.67952,1.28418 1.67955,1.28416 1.67952,1.28418 1.67953,1.28415 1.67952,1.28418 1.67955,1.28419 1.67952,1.28415 1.67952,1.28418 1.67955,1.28416 1.67952,1.28418 1.67952,1.28415 1.67952,1.28419 1.67955,1.28418 1.67953,1.284152 1.67952,1.28419 1.67952,1.28416 1.67955,1.28419 1.67952,1.28416 1.67952,1.28418 1.67952,1.28418 1.67955,1.28416 1.67952,1.28418 1.67953,1.28415 1.67952,1.28418 1.67955,1.28416 1.67952,1.28418 1.67952,1.28418 1.67952,1.28416 1.67955,1.28418 1.67952,1.28418 1.67953,1.28416 1.67952,1.28418 1.67955,1.28415 1.67952,1.28418 1.67952,1.28416 1.67955,1.28418 1.67952,1.28416 1.67952,1.28418"
       id="path142" />
    <path
       d="m 168.60602,131.70998 -1.65971,-1.28418 -1.65803,-1.28416 -1.65622,-1.28418 -1.65422,-1.28416 -1.65198,-1.28418 -1.64955,-1.28415 -1.64676,-1.28418 -1.6437,-1.28416 -1.64026,-1.28418 -1.63647,-1.28418 -1.63219,-1.28416 -1.62735,-1.28418 -1.62195,-1.28418 -1.61586,-1.28416 -1.60896,-1.28418 -1.60118,-1.28415 -1.59234,-1.28418 -1.58234,-1.28416 -1.57096,-1.28418 -1.55805,-1.28418 -1.54335,-1.28416 -1.52661,-1.28419 -1.50755,-1.28416 -1.48592,-1.28419 -1.46132,-1.284152 -1.43346,-1.28418 -1.40206,-1.28419 -1.3667,-1.28415 -1.32721,-1.28418 -1.2833,-1.28416 -1.235,-1.28418 -1.18216,-1.28415 -1.12519,-1.28419 -1.06426,-1.28418 -0.99997,-1.28415 -0.93294,-1.28418 -0.86398,-1.28416 -0.7938,-1.28418 -0.72321,-1.28418 -0.65294,-1.28416 -0.58354,-1.28415 -0.51549,-1.28418 -0.44907,-1.28419 -0.38447,-1.28415 -0.32163,-1.28418 -0.26053,-1.28416 -0.20095,-1.28418 -0.14261,-1.28418 -0.0852,-1.28416 -0.0283,-1.28418 0.0283,-1.28415 0.0852,-1.28419 0.14261,-1.28418 0.20095,-1.28415 0.26053,-1.28418 0.32163,-1.28416 0.38447,-1.28418 0.44907,-1.28416 0.51549,-1.28418 0.58354,-1.28418 0.65294,-1.28415 0.72321,-1.28419 0.7938,-1.28415 0.86398,-1.28418 0.93294,-1.28416 0.99997,-1.28418 1.06426,-1.28418 1.12519,-1.28416 1.18216,-1.28418 1.235,-1.28415 1.2833,-1.28419 1.32721,-1.28415 1.3667,-1.28418 1.40206,-1.28418 1.43346,-1.28416 1.46132,-1.28418 1.48592,-1.28416 1.50755,-1.28418 1.52661,-1.28415 1.54335,-1.28418 1.55805,-1.28419 1.57096,-1.28415 1.58234,-1.28418 1.59234,-1.28416 1.60118,-1.28418 1.60896,-1.28418 1.61586,-1.28416 1.62195,-1.28418 1.62735,-1.28415 1.63219,-1.28418 1.63647,-1.28416 1.64026,-1.284181 1.6437,-1.28416 1.64676,-1.284181 1.64955,-1.28418 1.65198,-1.28416 1.65422,-1.28418 1.65622,-1.28415 1.65803,-1.2841801 1.65971,-1.28419"
       style="font-style:normal;font-weight:normal;font-size:12px;font-family:Dialog;color-interpolation:linearRGB;fill:none;fill-opacity:1;fill-rule:evenodd;stroke:#8080b3;stroke-width:0.264583;stroke-linecap:butt;stroke-linejoin:bevel;stroke-miterlimit:1;stroke-dasharray:2.11667, 0.79375, 0.529167, 0.79375;stroke-dashoffset:0;stroke-opacity:1;color-rendering:optimizeQuality;image-rendering:optimizeQuality;shape-rendering:auto;text-rendering:geometricPrecision"
       id="path146" />
    <path
       d="m 168.33067,131.70998 -1.67661,-1.28418 -1.6764,-1.28416 -1.67611,-1.28418 -1.67582,-1.28416 -1.67547,-1.28418 -1.67508,-1.28415 -1.67468,-1.28418 -1.67423,-1.28416 -1.67365,-1.28418 -1.67309,-1.28418 -1.67241,-1.28416 -1.67164,-1.28418 -1.67079,-1.28418 -1.66978,-1.28416 -1.66868,-1.28418 -1.66735,-1.28415 -1.66587,-1.28418 -1.66415,-1.28416 -1.66214,-1.28418 -1.65978,-1.28418 -1.65703,-1.28416 -1.65383,-1.28419 -1.65,-1.28416 -1.64544,-1.28419 -1.64007,-1.284152 -1.63357,-1.28418 -1.6257,-1.28419 -1.61624,-1.28415 -1.60467,-1.28418 -1.59054,-1.28416 -1.57316,-1.28418 -1.55178,-1.28415 -1.52538,-1.28419 -1.49288,-1.28418 -1.45286,-1.28415 -1.40396,-1.28418 -1.34482,-1.28416 -1.27442,-1.28418 -1.19229,-1.28418 -1.09884,-1.28416 -0.99581,-1.28415 -0.88575,-1.28418 -0.77185,-1.28419 -0.65746,-1.28415 -0.54529,-1.28418 -0.43702,-1.28416 -0.33345,-1.28418 -0.234417,-1.28418 -0.13907,-1.28416 -0.0461,-1.28418 0.0461,-1.28415 0.13907,-1.28419 0.234417,-1.28418 0.33345,-1.28415 0.43702,-1.28418 0.54529,-1.28416 0.65746,-1.28418 0.77185,-1.28416 0.88575,-1.28418 0.99581,-1.28418 1.09884,-1.28415 1.19229,-1.28419 1.27442,-1.28415 1.34482,-1.28418 1.40396,-1.28416 1.45286,-1.28418 1.49288,-1.28418 1.52538,-1.28416 1.55178,-1.28418 1.57316,-1.28415 1.59054,-1.28419 1.60467,-1.28415 1.61624,-1.28418 1.6257,-1.28418 1.63357,-1.28416 1.64007,-1.28418 1.64544,-1.28416 1.65,-1.28418 1.65383,-1.28415 1.65703,-1.28418 1.65978,-1.28419 1.66214,-1.28415 1.66415,-1.28418 1.66587,-1.28416 1.66735,-1.28418 1.66868,-1.28418 1.66978,-1.28416 1.67079,-1.28418 1.67164,-1.28415 1.67241,-1.28418 1.67309,-1.28416 1.67365,-1.284181 1.67423,-1.28416 1.67468,-1.284181 1.67508,-1.28418 1.67547,-1.28416 1.67582,-1.28418 1.67611,-1.28415 1.6764,-1.2841801 1.67661,-1.28419"
       style="font-style:normal;font-weight:normal;font-size:12px;font-family:Dialog;color-interpolation:linearRGB;fill:none;fill-opacity:1;fill-rule:evenodd;stroke:#8080b3;stroke-width:0.264583;stroke-linecap:butt;stroke-linejoin:bevel;stroke-miterlimit:1;stroke-dasharray:2.11667, 0.79375, 0.529167, 0.79375;stroke-dashoffset:0;stroke-opacity:1;color-rendering:optimizeQuality;image-rendering:optimizeQuality;shape-rendering:auto;text-rendering:geometricPrecision"
       id="path148" />
    <path
       d="m 175.06204,131.70998 -1.55181,-1.28418 -1.54712,-1.28416 -1.54215,-1.28418 -1.53692,-1.28416 -1.5314,-1.28418 -1.52557,-1.28415 -1.51937,-1.28418 -1.51288,-1.28416 -1.50593,-1.28418 -1.49863,-1.28418 -1.49087,-1.28416 -1.4826,-1.28418 -1.47383,-1.28418 -1.46452,-1.28416 -1.4546,-1.28418 -1.44402,-1.28415 -1.43274,-1.28418 -1.42068,-1.28416 -1.40785,-1.28418 -1.39412,-1.28418 -1.37938,-1.28416 -1.36363,-1.28419 -1.34673,-1.28416 -1.32861,-1.28419 -1.30918,-1.284152 -1.28828,-1.28418 -1.26582,-1.28419 -1.24172,-1.28415 -1.21573,-1.28418 -1.1878,-1.28416 -1.15773,-1.28418 -1.12544,-1.28415 -1.09066,-1.28419 -1.05328,-1.28418 -1.01312,-1.28415 -0.97007,-1.28418 -0.92387,-1.28416 -0.87455,-1.28418 -0.82188,-1.28418 -0.76581,-1.28416 -0.7063,-1.28415 -0.64342,-1.28418 -0.57716,-1.28419 -0.50773,-1.28415 -0.4353,-1.28418 -0.36017,-1.28416 -0.28271,-1.28418 -0.20336,-1.28418 -0.12258,-1.28416 -0.041,-1.28418 0.041,-1.28415 0.12258,-1.28419 0.20336,-1.28418 0.28271,-1.28415 0.36017,-1.28418 0.4353,-1.28416 0.50773,-1.28418 0.57716,-1.28416 0.64342,-1.28418 0.7063,-1.28418 0.76581,-1.28415 0.82188,-1.28419 0.87455,-1.28415 0.92387,-1.28418 0.97007,-1.28416 1.01312,-1.28418 1.05328,-1.28418 1.09066,-1.28416 1.12544,-1.28418 1.15773,-1.28415 1.1878,-1.28419 1.21573,-1.28415 1.24172,-1.28418 1.26582,-1.28418 1.28828,-1.28416 1.30918,-1.28418 1.32861,-1.28416 1.34673,-1.28418 1.36363,-1.28415 1.37938,-1.28418 1.39412,-1.28419 1.40785,-1.28415 1.42068,-1.28418 1.43274,-1.28416 1.44402,-1.28418 1.4546,-1.28418 1.46452,-1.28416 1.47383,-1.28418 1.4826,-1.28415 1.49087,-1.28418 1.49863,-1.28416 1.50593,-1.284181 1.51288,-1.28416 1.51937,-1.284181 1.52557,-1.28418 1.5314,-1.28416 1.53692,-1.28418 1.54215,-1.28415 1.54712,-1.2841801 1.55181,-1.28419"
       style="font-style:normal;font-weight:normal;font-size:12px;font-family:Dialog;color-interpolation:linearRGB;fill:none;fill-opacity:1;fill-rule:evenodd;stroke:#ff0000;stroke-width:0.264583;stroke-linecap:butt;stroke-linejoin:round;stroke-miterlimit:10;stroke-dasharray:none;stroke-dashoffset:0;stroke-opacity:1;color-rendering:optimizeQuality;image-rendering:optimizeQuality;shape-rendering:auto;text-rendering:geometricPrecision"
       id="path152" />
    <path
       d="m 183.05196,131.70998 -1.48072,-1.28418 -1.47389,-1.28416 -1.46671,-1.28418 -1.45923,-1.28416 -1.45135,-1.28418 -1.44304,-1.28415 -1.43433,-1.28418 -1.4252,-1.28416 -1.41558,-1.28418 -1.40541,-1.28418 -1.39475,-1.28416 -1.38351,-1.28418 -1.3716,-1.28418 -1.35914,-1.28416 -1.34588,-1.28418 -1.33197,-1.28415 -1.31722,-1.28418 -1.3017,-1.28416 -1.28521,-1.28418 -1.26783,-1.28418 -1.24947,-1.28416 -1.22997,-1.28419 -1.20939,-1.28416 -1.1876,-1.28419 -1.16454,-1.284152 -1.14017,-1.28418 -1.11435,-1.28419 -1.08701,-1.28415 -1.05817,-1.28418 -1.02762,-1.28416 -0.99544,-1.28418 -0.96137,-1.28415 -0.92551,-1.28419 -0.8877,-1.28418 -0.84794,-1.28415 -0.80616,-1.28418 -0.76234,-1.28416 -0.71649,-1.28418 -0.66855,-1.28418 -0.61865,-1.28416 -0.56676,-1.28415 -0.51293,-1.28418 -0.45733,-1.28419 -0.40007,-1.28415 -0.34129,-1.28418 -0.28117,-1.28416 -0.21987,-1.28418 -0.15775,-1.28418 -0.0949,-1.28416 -0.0317,-1.28418 0.0317,-1.28415 0.0949,-1.28419 0.15775,-1.28418 0.21987,-1.28415 0.28117,-1.28418 0.34129,-1.28416 0.40007,-1.28418 0.45733,-1.28416 0.51293,-1.28418 0.56676,-1.28418 0.61865,-1.28415 0.66855,-1.28419 0.71649,-1.28415 0.76234,-1.28418 0.80616,-1.28416 0.84794,-1.28418 0.8877,-1.28418 0.92551,-1.28416 0.96137,-1.28418 0.99544,-1.28415 1.02762,-1.28419 1.05817,-1.28415 1.08701,-1.28418 1.11435,-1.28418 1.14017,-1.28416 1.16454,-1.28418 1.1876,-1.28416 1.20939,-1.28418 1.22997,-1.28415 1.24947,-1.28418 1.26783,-1.28419 1.28521,-1.28415 1.3017,-1.28418 1.31722,-1.28416 1.33197,-1.28418 1.34588,-1.28418 1.35914,-1.28416 1.3716,-1.28418 1.38351,-1.28415 1.39475,-1.28418 1.40541,-1.28416 1.41558,-1.284181 1.4252,-1.28416 1.43433,-1.284181 1.44304,-1.28418 1.45135,-1.28416 1.45923,-1.28418 1.46671,-1.28415 1.47389,-1.2841801 1.48072,-1.28419"
       style="font-style:normal;font-weight:normal;font-size:12px;font-family:Dialog;color-interpolation:linearRGB;fill:none;fill-opacity:1;fill-rule:evenodd;stroke:#8080b3;stroke-width:0.264583;stroke-linecap:butt;stroke-linejoin:bevel;stroke-miterlimit:1;stroke-dasharray:2.11667, 0.79375, 0.529167, 0.79375;stroke-dashoffset:0;stroke-opacity:1;color-rendering:optimizeQuality;image-rendering:optimizeQuality;shape-rendering:auto;text-rendering:geometricPrecision"
       id="path156" />
    <path
       d="m 191.41776,131.70998 -1.35924,-1.28418 -1.34959,-1.28416 -1.33953,-1.28418 -1.32906,-1.28416 -1.31812,-1.28418 -1.30681,-1.28415 -1.29495,-1.28418 -1.28262,-1.28416 -1.26981,-1.28418 -1.25643,-1.28418 -1.24246,-1.28416 -1.22793,-1.28418 -1.21277,-1.28418 -1.19695,-1.28416 -1.18046,-1.28418 -1.1633,-1.28415 -1.14538,-1.28418 -1.1267,-1.28416 -1.10723,-1.28418 -1.08693,-1.28418 -1.06582,-1.28416 -1.04376,-1.28419 -1.02081,-1.28416 -0.99698,-1.28419 -0.97208,-1.284152 -0.94623,-1.28418 -0.91934,-1.28419 -0.89144,-1.28415 -0.86243,-1.28418 -0.83233,-1.28416 -0.80119,-1.28418 -0.76885,-1.28415 -0.73546,-1.28419 -0.70091,-1.28418 -0.66532,-1.28415 -0.62854,-1.28418 -0.59077,-1.28416 -0.55186,-1.28418 -0.51197,-1.28418 -0.47115,-1.28416 -0.42934,-1.28415 -0.38663,-1.28418 -0.34319,-1.28419 -0.29901,-1.28415 -0.25413,-1.28418 -0.20873,-1.28416 -0.16285,-1.28418 -0.11658,-1.28418 -0.0701,-1.28416 -0.0234,-1.28418 0.0234,-1.28415 0.0701,-1.28419 0.11658,-1.28418 0.16285,-1.28415 0.20873,-1.28418 0.25413,-1.28416 0.29901,-1.28418 0.34319,-1.28416 0.38663,-1.28418 0.42934,-1.28418 0.47115,-1.28415 0.51197,-1.28419 0.55186,-1.28415 0.59077,-1.28418 0.62854,-1.28416 0.66532,-1.28418 0.70091,-1.28418 0.73546,-1.28416 0.76885,-1.28418 0.80119,-1.28415 0.83233,-1.28419 0.86243,-1.28415 0.89144,-1.28418 0.91934,-1.28418 0.94623,-1.28416 0.97208,-1.28418 0.99698,-1.28416 1.02081,-1.28418 1.04376,-1.28415 1.06582,-1.28418 1.08693,-1.28419 1.10723,-1.28415 1.1267,-1.28418 1.14538,-1.28416 1.1633,-1.28418 1.18046,-1.28418 1.19695,-1.28416 1.21277,-1.28418 1.22793,-1.28415 1.24246,-1.28418 1.25643,-1.28416 1.26981,-1.284181 1.28262,-1.28416 1.29495,-1.284181 1.30681,-1.28418 1.31812,-1.28416 1.32906,-1.28418 1.33953,-1.28415 1.34959,-1.2841801 1.35924,-1.28419"
       style="font-style:normal;font-weight:normal;font-size:12px;font-family:Dialog;color-interpolation:linearRGB;fill:none;fill-opacity:1;fill-rule:evenodd;stroke:#8080b3;stroke-width:0.264583;stroke-linecap:butt;stroke-linejoin:bevel;stroke-miterlimit:1;stroke-dasharray:2.11667, 0.79375, 0.529167, 0.79375;stroke-dashoffset:0;stroke-opacity:1;color-rendering:optimizeQuality;image-rendering:optimizeQuality;shape-rendering:auto;text-rendering:geometricPrecision"
       id="path158" />
    <path
       d="m 196.07776,126.5733 -1.19425,-1.28418 -1.18107,-1.28415 -1.16745,-1.28418 -1.15334,-1.28416 -1.13874,-1.28418 -1.12366,-1.28418 -1.1081,-1.28416 -1.09199,-1.28418 -1.07535,-1.28418 -1.05812,-1.28416 -1.04039,-1.28418 -1.02198,-1.28415 -1.00307,-1.28418 -0.98348,-1.28416 -0.96327,-1.28418 -0.94242,-1.28418 -0.92096,-1.28416 -0.89873,-1.28419 -0.87593,-1.28416 -0.85239,-1.28419 -0.82814,-1.284152 -0.80322,-1.28418 -0.77756,-1.28419 -0.75123,-1.28415 -0.72417,-1.28418 -0.69638,-1.28416 -0.66791,-1.28418 -0.63871,-1.28415 -0.60886,-1.28419 -0.57827,-1.28418 -0.54705,-1.28415 -0.51517,-1.28418 -0.48271,-1.28416 -0.44961,-1.28418 -0.41589,-1.28418 -0.38172,-1.28416 -0.34697,-1.28415 -0.31179,-1.28418 -0.27617,-1.28419 -0.24014,-1.28415 -0.20381,-1.28418 -0.16716,-1.28416 -0.13025,-1.28418 -0.0932,-1.28418 -0.0559,-1.28416 -0.0187,-1.28418 0.0187,-1.28415 0.0559,-1.28419 0.0932,-1.28418 0.13025,-1.28415 0.16716,-1.28418 0.20381,-1.28416 0.24014,-1.28418 0.27617,-1.28416 0.31179,-1.28418 0.34697,-1.28418 0.38172,-1.28415 0.41589,-1.28419 0.44961,-1.28415 0.48271,-1.28418 0.51517,-1.28416 0.54705,-1.28418 0.57827,-1.28418 0.60886,-1.28416 0.63871,-1.28418 0.66791,-1.28415 0.69638,-1.28419 0.72417,-1.28415 0.75123,-1.28418 0.77756,-1.28418 0.80322,-1.28416 0.82814,-1.28418 0.85239,-1.28416 0.87593,-1.28418 0.89873,-1.28415 0.92096,-1.28418 0.94242,-1.28419 0.96327,-1.28415 0.98348,-1.28418 1.00307,-1.28416 1.02198,-1.28418 1.04039,-1.28418 1.05812,-1.28416 1.07535,-1.28418 1.09199,-1.28415 1.1081,-1.28418 1.12366,-1.28416 1.13874,-1.284181 1.15334,-1.28416 1.16745,-1.284181 1.18107,-1.28418 1.19425,-1.28416"
       style="font-style:normal;font-weight:normal;font-size:12px;font-family:Dialog;color-interpolation:linearRGB;fill:none;fill-opacity:1;fill-rule:evenodd;stroke:#8080b3;stroke-width:0.264583;stroke-linecap:butt;stroke-linejoin:bevel;stroke-miterlimit:1;stroke-dasharray:2.11667, 0.79375, 0.529167, 0.79375;stroke-dashoffset:0;stroke-opacity:1;color-rendering:optimizeQuality;image-rendering:optimizeQuality;shape-rendering:auto;text-rendering:geometricPrecision"
       id="path160" />
    <path
       d="m 196.94425,112.44741 -0.89707,-1.28415 -0.87826,-1.28418 -0.85897,-1.28416 -0.83923,-1.28418 -0.81902,-1.28418 -0.79827,-1.28416 -0.77709,-1.28419 -0.75546,-1.28416 -0.73327,-1.28419 -0.71061,-1.284152 -0.68752,-1.28418 -0.66392,-1.28419 -0.63985,-1.28415 -0.61531,-1.28418 -0.59029,-1.28416 -0.5648,-1.28418 -0.53891,-1.28415 -0.5126,-1.28419 -0.48577,-1.28418 -0.45863,-1.28415 -0.43101,-1.28418 -0.40309,-1.28416 -0.37476,-1.28418 -0.34613,-1.28418 -0.31712,-1.28416 -0.28787,-1.28415 -0.25831,-1.28418 -0.22852,-1.28419 -0.19852,-1.28415 -0.16833,-1.28418 -0.13793,-1.28416 -0.10742,-1.28418 -0.0768,-1.28418 -0.0461,-1.28416 -0.0154,-1.28418 0.0154,-1.28415 0.0461,-1.28419 0.0768,-1.28418 0.10742,-1.28415 0.13793,-1.28418 0.16833,-1.28416 0.19852,-1.28418 0.22852,-1.28416 0.25831,-1.28418 0.28787,-1.28418 0.31712,-1.28415 0.34613,-1.28419 0.37476,-1.28415 0.40309,-1.28418 0.43101,-1.28416 0.45863,-1.28418 0.48577,-1.28418 0.5126,-1.28416 0.53891,-1.28418 0.5648,-1.28415 0.59029,-1.28419 0.61531,-1.28415 0.63985,-1.28418 0.66392,-1.28418 0.68752,-1.28416 0.71061,-1.28418 0.73327,-1.28416 0.75546,-1.28418 0.77709,-1.28415 0.79827,-1.28418 0.81902,-1.28419 0.83923,-1.28415 0.85897,-1.28418 0.87826,-1.28416 0.89707,-1.28418"
       style="font-style:normal;font-weight:normal;font-size:12px;font-family:Dialog;color-interpolation:linearRGB;fill:none;fill-opacity:1;fill-rule:evenodd;stroke:#8080b3;stroke-width:0.264583;stroke-linecap:butt;stroke-linejoin:bevel;stroke-miterlimit:1;stroke-dasharray:2.11667, 0.79375, 0.529167, 0.79375;stroke-dashoffset:0;stroke-opacity:1;color-rendering:optimizeQuality;image-rendering:optimizeQuality;shape-rendering:auto;text-rendering:geometricPrecision"
       id="path162" />
    <path
       d="m 118.72145,67.501428 3e-5,-0.0529 8e-5,-0.0529 8e-5,-0.0529 1.6e-4,-0.0529 2.1e-4,-0.0529 2.1e-4,-0.0529 2.6e-4,-0.0529 2.7e-4,-0.0529 2.6e-4,-0.0529 2.7e-4,-0.0529 5.3e-4,-0.0529 5.3e-4,-0.0529 5.2e-4,-0.0529 5.3e-4,-0.0529 5.3e-4,-0.0529 5.3e-4,-0.0529 8e-4,-0.0529 7.9e-4,-0.0529 7.9e-4,-0.0529 8e-4,-0.0529 7.9e-4,-0.0529 0.001,-0.0529 0.001,-0.0529 10e-4,-0.0529 0.001,-0.0529 0.001,-0.0529 10e-4,-0.0529 0.001,-0.0529 0.001,-0.0529 10e-4,-0.0529 0.001,-0.0529 0.001,-0.0529 10e-4,-0.0529 0.001,-0.0529 0.002,-0.0529 0.002,-0.0529 0.002,-0.0529 0.002,-0.0528 0.002,-0.0529 0.002,-0.0529 0.002,-0.0529 0.002,-0.0528 0.002,-0.0529 0.002,-0.0528 0.002,-0.0529 0.002,-0.0528 0.002,-0.0529 0.002,-0.0528 0.002,-0.0528 0.002,-0.0529 0.002,-0.0528 0.002,-0.0528 0.002,-0.0528 0.002,-0.0528 0.002,-0.0528 0.002,-0.0529 0.002,-0.0528 0.002,-0.0528 0.002,-0.0528 0.003,-0.0528 0.003,-0.0528 0.003,-0.0528 0.003,-0.0528 0.003,-0.0528 0.003,-0.0528 0.003,-0.0528 0.003,-0.0528 0.003,-0.0528 0.003,-0.0528 0.003,-0.0528 0.003,-0.0528 0.003,-0.0528 0.003,-0.0528 0.003,-0.0528 0.003,-0.0528 0.003,-0.0528 0.003,-0.0528 0.003,-0.0528 0.003,-0.0528 0.003,-0.0528 0.003,-0.0528 0.003,-0.0528 0.004,-0.0528 0.004,-0.0528 0.004,-0.0528 0.004,-0.0528 0.004,-0.0528 0.004,-0.0528 0.004,-0.0528 0.004,-0.0528 0.004,-0.0528 0.004,-0.0528 0.004,-0.0528 0.004,-0.0528 0.004,-0.0528 0.004,-0.0528 0.004,-0.0528 0.004,-0.0527 0.004,-0.0528 0.004,-0.0528 0.0218,-0.26371 0.0229,-0.26365 0.024,-0.26358 0.025,-0.2635 0.0261,-0.26342 0.0272,-0.26334 0.0282,-0.26329 0.0293,-0.26318 0.0303,-0.26307 0.0314,-0.263 0.0324,-0.26292 0.0335,-0.26278 0.0345,-0.2627 0.0356,-0.2626 0.0366,-0.2625 0.0376,-0.26238 0.0387,-0.26226 0.0397,-0.26215 0.0408,-0.26202 0.0418,-0.26191 0.0428,-0.26175 0.0438,-0.26164 0.0449,-0.26152 0.0459,-0.26135 0.0469,-0.26123 0.0479,-0.26109 0.0489,-0.26093 0.05,-0.26077 0.051,-0.26064 0.052,-0.26046 0.053,-0.2603 0.054,-0.26014 0.055,-0.25998 0.056,-0.25979 0.057,-0.25964 0.058,-0.25942 0.0589,-0.25926 0.06,-0.25906 0.0609,-0.25889 0.0619,-0.25869 0.0629,-0.25847 0.0639,-0.25828 0.0648,-0.25811 0.0658,-0.25786 0.0667,-0.25765 0.0677,-0.25744 0.0687,-0.25723 0.0696,-0.25701 0.0706,-0.25675 0.0716,-0.25654 0.0725,-0.25631 0.0734,-0.25606 0.0743,-0.25583 0.0753,-0.25558 0.0762,-0.25533 0.0771,-0.25505 0.0781,-0.25482 0.079,-0.25456 0.0799,-0.25426 0.0808,-0.25403 0.0817,-0.25374 0.0826,-0.25347 0.0835,-0.25318 0.0844,-0.25289 0.0852,-0.25259 0.0862,-0.25231 0.087,-0.25202 0.0879,-0.25172 0.0888,-0.25141 0.0896,-0.25109 0.0905,-0.25077 0.0913,-0.25045 0.0922,-0.25014 0.0931,-0.24982 0.0939,-0.24948 0.0948,-0.24915 0.0956,-0.24879 0.0964,-0.24847 0.0972,-0.24813 0.0981,-0.24775 0.0989,-0.24742 0.0996,-0.24704 0.10049,-0.24667 0.10128,-0.24633 0.10208,-0.24593 0.10284,-0.24556 0.10364,-0.24519 0.10443,-0.24479 0.1052,-0.24439 0.10593,-0.244 0.10671,-0.24363 0.1075,-0.24321 0.10822,-0.24278 0.10898,-0.24238 0.10972,-0.24196 0.11044,-0.24157 0.11118,-0.24111 0.11189,-0.24067 0.1126,-0.24027 0.11335,-0.23979 0.0471,-0.0991 0.0472,-0.099 0.0473,-0.0989 0.0474,-0.0988 0.0476,-0.0987 0.0477,-0.0987 0.0478,-0.0986 0.0479,-0.0985 0.048,-0.0985 0.0482,-0.0984 0.0483,-0.0983 0.0484,-0.0982 0.0485,-0.0981 0.0486,-0.0981 0.0487,-0.0979 0.0488,-0.0979 0.0489,-0.0978 0.049,-0.0977 0.0491,-0.0976 0.0493,-0.0975 0.0494,-0.0975 0.0495,-0.0974 0.0496,-0.0973 0.0497,-0.0972 0.0498,-0.0971 0.0499,-0.097 0.05,-0.097 0.0501,-0.0968 0.0502,-0.0968 0.0503,-0.0967 0.0504,-0.0966 0.0505,-0.0965 0.0506,-0.0964 0.0507,-0.0963 0.0508,-0.0962 0.0509,-0.0961 0.051,-0.0961 0.0511,-0.0959 0.0512,-0.0959 0.0513,-0.0958 0.0514,-0.0957 0.0515,-0.0956 0.0516,-0.0955 0.0517,-0.0954 0.0518,-0.0953 0.0519,-0.0952 0.052,-0.0951 0.0521,-0.095 0.0522,-0.0949 0.0523,-0.0948 0.0524,-0.0947 0.0525,-0.0946 0.0525,-0.0945 0.0527,-0.0944 0.0527,-0.0943 0.0528,-0.0942 0.0529,-0.0941 0.053,-0.094 0.0531,-0.0939 0.0532,-0.0938 0.0533,-0.0937 0.0533,-0.0936 0.0534,-0.0935 0.0535,-0.0934 0.0536,-0.0933 0.0537,-0.0932 0.0538,-0.0931 0.0539,-0.093 0.0539,-0.0929 0.054,-0.0928 0.0541,-0.0927 0.0542,-0.0925 0.0542,-0.0925 0.0543,-0.0923 0.0544,-0.0922 0.0545,-0.0921 0.0546,-0.092 0.0546,-0.0919 0.0547,-0.0918 0.0548,-0.0917 0.0548,-0.0916 0.0549,-0.0915 0.055,-0.0914 0.0551,-0.0912 0.0551,-0.0911 0.0552,-0.091 0.0553,-0.0909 0.0553,-0.0908 0.0554,-0.0907 0.0555,-0.0906 0.0555,-0.0904 0.0556,-0.0903 0.0557,-0.0902 0.0557,-0.0901 0.0558,-0.09 0.0559,-0.0898 0.0559,-0.0897 0.056,-0.0896 0.056,-0.0895 0.0561,-0.0893 0.0561,-0.0892 0.0562,-0.0891 0.0562,-0.089 0.0563,-0.0889 0.0564,-0.0887 0.0564,-0.0886 0.0565,-0.0885 0.0565,-0.0883 0.0566,-0.0882 0.0566,-0.0881 0.0567,-0.088 0.0567,-0.0878 0.0568,-0.0877 0.0568,-0.0876 0.0569,-0.0874 0.0569,-0.0873 0.057,-0.0872 0.057,-0.087 0.0571,-0.0869 0.0571,-0.0868 0.0571,-0.0866 0.0572,-0.0865 0.0572,-0.0864 0.0573,-0.0862 0.0573,-0.0861 0.0573,-0.0859 0.0574,-0.0858 0.0574,-0.0857 0.0575,-0.0855 0.0575,-0.0854 0.0575,-0.0853 0.0576,-0.0851 0.0576,-0.085 0.0576,-0.0848 0.0577,-0.0847 0.0577,-0.0845 0.0577,-0.0844 0.0577,-0.0842 0.0577,-0.0841 0.0578,-0.0839 0.0578,-0.0838 0.0578,-0.0837 0.0578,-0.0835 0.0579,-0.0834 0.0579,-0.0832 0.0579,-0.0831 0.058,-0.0829 0.0579,-0.0828 0.058,-0.0826 0.058,-0.0824 0.058,-0.0823 0.058,-0.0821 0.058,-0.082 0.058,-0.0818 0.058,-0.0816 0.0581,-0.0815 0.058,-0.0813 0.0581,-0.0812 0.0581,-0.081 0.0581,-0.0809 0.058,-0.0807 0.0581,-0.0805 0.058,-0.0804 0.0581,-0.0802 0.058,-0.08 0.0581,-0.0798 0.0581,-0.0797 0.0581,-0.0795 0.058,-0.0794 0.0581,-0.0791 0.058,-0.079 0.058,-0.0788 0.058,-0.0786 0.058,-0.0785 0.058,-0.0783 0.058,-0.0781 0.058,-0.0779 0.0579,-0.0777 0.0579,-0.0776 0.0579,-0.0774 0.0579,-0.0772 0.0579,-0.077 0.0578,-0.0768 0.0578,-0.0766 0.0578,-0.0764 0.0578,-0.0762 0.0577,-0.0761 0.0577,-0.0759 0.0577,-0.0757 0.0577,-0.0755 0.0576,-0.0753 0.0576,-0.0751 0.0575,-0.0749 0.0575,-0.0747 0.0574,-0.0745 0.0574,-0.0743 0.0574,-0.0741 0.0573,-0.0739 0.0573,-0.0737 0.0572,-0.0735 0.0186,-0.0238 0.0186,-0.0238 0.0185,-0.0237 0.0185,-0.0237 0.0185,-0.0237 0.0186,-0.0237 0.0186,-0.0237 0.0185,-0.0237 0.0185,-0.0236 0.0185,-0.0236 0.0185,-0.0236 0.0185,-0.0236 0.0185,-0.0235 0.0185,-0.0235 0.0185,-0.0235 0.0185,-0.0234 0.0185,-0.0234 0.0185,-0.0234 0.0185,-0.0234 0.0184,-0.0234 0.0185,-0.0234 0.0184,-0.0233 0.0184,-0.0233 0.0184,-0.0233 0.0184,-0.0233 0.0184,-0.0233 0.0184,-0.0232 0.0184,-0.0232 0.0184,-0.0231 0.0184,-0.0232 0.0184,-0.0231 0.0184,-0.0231 0.0184,-0.0231 0.0184,-0.023 0.0184,-0.0231 0.0183,-0.023 0.0183,-0.023 0.0183,-0.0229 0.0183,-0.0229 0.0183,-0.0229 0.0183,-0.0229 0.0183,-0.0229 0.0183,-0.0228 0.0183,-0.0228 0.0183,-0.0228 0.0182,-0.0228 0.0183,-0.0228 0.0183,-0.0227 0.0182,-0.0227 0.0182,-0.0227 0.0183,-0.0226 0.0182,-0.0226 0.0182,-0.0226 0.0182,-0.0226 0.0182,-0.0225 0.0182,-0.0225 0.0181,-0.0225 0.0182,-0.0225 0.0181,-0.0225 0.0182,-0.0224 0.0181,-0.0224 0.0181,-0.0224 0.0181,-0.0223 0.0181,-0.0223 0.0181,-0.0223 0.0181,-0.0223 0.0181,-0.0222 0.0181,-0.0222 0.0181,-0.0222 0.0181,-0.0222 0.0181,-0.0222 0.018,-0.0221 0.018,-0.0221 0.018,-0.0221 0.018,-0.022 0.018,-0.022 0.018,-0.022 0.018,-0.022 0.018,-0.0219 0.018,-0.0219 0.018,-0.0219 0.0179,-0.0219 0.0179,-0.0219 0.0179,-0.0218 0.0179,-0.0218 0.0179,-0.0218 0.0179,-0.0217 0.0179,-0.0217 0.0179,-0.0217 0.0179,-0.0216 0.0179,-0.0216 0.0178,-0.0216 0.0178,-0.0216 0.0178,-0.0215 0.0178,-0.0215 0.0178,-0.0215 0.0178,-0.0214 0.0178,-0.0214 0.0178,-0.0214 0.0177,-0.0214 0.0177,-0.0214 0.0177,-0.0213 0.0177,-0.0213 0.0177,-0.0213 0.0177,-0.0212 0.0177,-0.0212 0.0177,-0.0212 0.0177,-0.0211 0.0177,-0.0212 0.0177,-0.0211 0.0176,-0.0211 0.0176,-0.021 0.0176,-0.021 0.0176,-0.021 0.0176,-0.0209 0.0176,-0.0209 0.0175,-0.0209 0.0175,-0.0209 0.0175,-0.0208 0.0175,-0.0208 0.0175,-0.0208 0.0175,-0.0208 0.0174,-0.0208 0.0175,-0.0207 0.0174,-0.0207 0.0174,-0.0206 0.0174,-0.0206 0.0174,-0.0206 0.0174,-0.0206 0.0174,-0.0205 0.0174,-0.0205 0.0173,-0.0205 0.0173,-0.0204 0.0173,-0.0204 0.0173,-0.0204 0.0173,-0.0204 0.0173,-0.0203 0.0173,-0.0203 0.0172,-0.0203 0.0172,-0.0202 0.0172,-0.0202 0.0172,-0.0202 0.0172,-0.0201 0.0171,-0.0201 0.0172,-0.02 0.0171,-0.0201 0.0171,-0.02 0.0171,-0.02 0.0171,-0.0199 0.0171,-0.0199 0.017,-0.0199 0.017,-0.0199 0.017,-0.0198 0.017,-0.0198 0.017,-0.0197 0.017,-0.0197 0.0169,-0.0197 0.0169,-0.0196 0.0169,-0.0196 0.0169,-0.0196 0.0168,-0.0196 0.0169,-0.0195 0.0168,-0.0195 0.0168,-0.0195 0.0168,-0.0194 0.0168,-0.0194 0.0168,-0.0193 0.0168,-0.0194 0.0167,-0.0193 0.0167,-0.0193 0.0167,-0.0192 0.0166,-0.0192 0.0167,-0.0192 0.0166,-0.0191 0.0166,-0.0191 0.0166,-0.0191 0.0166,-0.019 0.0165,-0.019 0.0165,-0.0189 0.0165,-0.0189 0.0165,-0.0189 0.0165,-0.0189 0.0165,-0.0188 0.0165,-0.0188 0.0164,-0.0187 0.0164,-0.0187 0.0164,-0.0187 0.0163,-0.0186 0.0163,-0.0186 0.0163,-0.0186 0.0163,-0.0185 0.0163,-0.0185 0.0162,-0.0184 0.0162,-0.0184 0.0162,-0.0184 0.0162,-0.0183 0.0162,-0.0183 0.0161,-0.0183 0.0161,-0.0182 0.0161,-0.0182 0.0111,-0.0125 0.0111,-0.0125 0.0111,-0.0125 0.0111,-0.0125 0.0111,-0.0125 0.011,-0.0124 0.011,-0.0124 0.011,-0.0124 0.011,-0.0124 0.011,-0.0124 0.011,-0.0124 0.011,-0.0123 0.0109,-0.0123 0.011,-0.0123 0.011,-0.0123 0.0109,-0.0123 0.0109,-0.0122 0.0109,-0.0122 0.0109,-0.0122 0.0109,-0.0122 0.0109,-0.0121 0.0108,-0.0122 0.0108,-0.0121 0.0109,-0.0121 0.0108,-0.0121 0.0108,-0.0121 0.0108,-0.012 0.0108,-0.012 0.0108,-0.012 0.0108,-0.012 0.0107,-0.012 0.0107,-0.012 0.0107,-0.0119 0.0107,-0.0119 0.0107,-0.0119 0.0107,-0.0119 0.0107,-0.0119 0.0107,-0.0118 0.0106,-0.0118 0.0106,-0.0118 0.0106,-0.0118 0.0106,-0.0118 0.0106,-0.0117 0.0106,-0.0117 0.0106,-0.0117 0.0105,-0.0117 0.0105,-0.0116 0.0105,-0.0116 0.0105,-0.0116 0.0105,-0.0116 0.0105,-0.0116 0.0104,-0.0116 0.0104,-0.0115 0.0104,-0.0115 0.0104,-0.0115 0.0104,-0.0115 0.0104,-0.0115 0.0104,-0.0114 0.0104,-0.0114 0.0103,-0.0114 0.0104,-0.0113 0.0103,-0.0113 0.0103,-0.0113 0.0103,-0.0113 0.0103,-0.0113 0.0102,-0.0112 0.0102,-0.0112 0.0102,-0.0112 0.0102,-0.0112 0.0102,-0.0111 0.0102,-0.0111 0.0102,-0.0111 0.0101,-0.0111 0.0101,-0.0111 0.0101,-0.011 0.0101,-0.011 0.0101,-0.011 0.0101,-0.0109 0.01,-0.011 0.01,-0.0109 0.01,-0.0109 0.01,-0.0109 0.01,-0.0109 0.01,-0.0108 0.01,-0.0108 0.01,-0.0108 0.01,-0.0107 0.01,-0.0107 0.01,-0.0107 0.01,-0.0107 0.01,-0.0106 0.01,-0.0106 0.01,-0.0106 0.01,-0.0106 0.01,-0.0105 0.01,-0.0105 0.01,-0.0105 0.01,-0.0105 0.01,-0.0105 0.01,-0.0104 0.008,-0.008 0.008,-0.008 0.008,-0.008 0.008,-0.008 0.008,-0.008 0.008,-0.008 0.008,-0.008 0.008,-0.008 0.008,-0.008 0.008,-0.008 0.008,-0.008 0.008,-0.008 0.008,-0.008 0.008,-0.008 0.008,-0.008 0.008,-0.008 0.007,-0.008 0.007,-0.008 0.007,-0.008 0.007,-0.008 0.007,-0.008 0.007,-0.008 0.007,-0.008 0.007,-0.008 0.007,-0.008 0.007,-0.008 0.007,-0.008 0.007,-0.008 0.007,-0.008 0.007,-0.008 0.007,-0.008 0.007,-0.008 0.007,-0.008 0.007,-0.008 0.007,-0.008 0.007,-0.008 0.007,-0.008 0.007,-0.008 0.007,-0.008 0.007,-0.008 0.007,-0.008 0.007,-0.008 0.007,-0.008 0.007,-0.008 0.007,-0.007 0.007,-0.007 0.007,-0.007 0.007,-0.007 0.007,-0.007 0.007,-0.007 0.007,-0.007 0.007,-0.007 0.007,-0.007 0.007,-0.007 0.007,-0.007 0.007,-0.007 0.007,-0.007 0.007,-0.007 0.007,-0.007 0.007,-0.007 0.007,-0.007 0.007,-0.007 0.007,-0.007 0.007,-0.007 0.007,-0.007 0.007,-0.007 0.007,-0.007 0.007,-0.007 0.007,-0.007 0.007,-0.007 0.007,-0.007 0.007,-0.007 0.007,-0.007 0.007,-0.007 0.007,-0.007 0.007,-0.007 0.007,-0.007 0.007,-0.007 0.006,-0.007 0.006,-0.007 0.006,-0.007 0.006,-0.007 0.006,-0.007 0.006,-0.007 0.006,-0.007 0.006,-0.007 0.006,-0.007 0.006,-0.007 0.006,-0.006 0.006,-0.006 0.006,-0.006 0.006,-0.006 0.006,-0.006 0.006,-0.006 0.006,-0.006 0.006,-0.006 0.006,-0.006 0.006,-0.006 0.006,-0.006 0.006,-0.006 0.002,-0.002 0.002,-0.002 0.002,-0.002 0.002,-0.002 0.002,-0.002 0.002,-0.002 0.002,-0.002 0.002,-0.002 0.002,-0.002 0.002,-0.002 0.002,-0.002 0.002,-0.002 0.002,-0.002 0.002,-0.002 0.002,-0.002 0.002,-0.002 0.002,-0.002 0.002,-0.002 0.002,-0.002 0.002,-0.002 0.002,-0.002 0.002,-0.002 0.002,-0.002 0.002,-0.002 0.002,-0.002 0.002,-0.002 0.002,-0.002 0.002,-0.002 0.002,-0.002 0.002,-0.002 0.002,-0.002 0.002,-0.002 0.002,-0.002 0.002,-0.002 0.002,-0.002 0.002,-0.002 0.002,-0.002 0.002,-0.002 0.002,-0.002 0.002,-0.002 0.002,-0.002 0.002,-0.002 0.002,-0.002 0.002,-0.002 0.002,-0.002 0.002,-0.002 0.002,-0.002 0.002,-0.002 0.002,-0.002 0.002,-0.002 0.002,-0.002 0.002,-0.002 0.002,-0.002 0.002,-0.002 0.002,-0.002 0.002,-0.002 0.002,-0.002 0.002,-0.002 0.002,-0.002 0.002,-0.002 0.002,-0.002 0.002,-0.002 0.002,-0.002 0.002,-0.002 0.001,-0.002 0.002,-0.002 0.001,-0.002 0.002,-0.002 0.001,-0.002 0.002,-0.002 0.001,-0.002 0.002,-0.002 0.001,-0.002 0.001,-0.002 0.001,-0.001 0.001,-0.002 0.002,-0.001 0.001,-0.002 0.002,-10e-4 0.001,-0.001 0.001,-10e-4 0.002,-0.002 0.001,-10e-4 0.001,-10e-4 0.001,-0.001 0.001,-10e-4 10e-4,-0.002 0.001,-10e-4 0.001,-10e-4 0.001,-0.001 0.001,-10e-4 0.001,-10e-4 10e-4,-10e-4 0.001,-0.001 0.001,-10e-4 0.001,-10e-4 0.001,-0.001 0.001,-10e-4 10e-4,-10e-4 0.001,-0.001 0.001,-10e-4 0.001,-10e-4 0.001,-0.001 0.001,-10e-4 10e-4,-10e-4 0.001,-0.001 0.001,-10e-4 0.001,-10e-4 0.001,-10e-4 0.001,-0.001 10e-4,-10e-4 0.001,-10e-4 0.001,-0.001 0.001,-10e-4 0.001,-10e-4 0.001,-0.001 10e-4,-10e-4 0.001,-10e-4 0.001,-0.001 0.001,-10e-4 0.001,-10e-4 0.001,-0.001 10e-4,-10e-4 0.001,-10e-4 0.001,-10e-4 0.001,-0.001 0.001,-10e-4 0.001,-10e-4 10e-4,-0.001 0.001,-10e-4 0.001,-10e-4 0.001,-0.001 0.001,-10e-4 0.001,-10e-4 10e-4,-0.001 0.001,-10e-4 0.001,-10e-4 0.001,-0.001 0.001,-10e-4 0.001,-10e-4 10e-4,-10e-4 0.001,-0.001 0.001,-10e-4 0.001,-10e-4 0.001,-0.001 10e-4,-10e-4 0.001,-10e-4 0.001,-0.001 0.001,-10e-4 0.001,-10e-4 0.001,-0.001 10e-4,-10e-4 0.001,-10e-4 0.001,-0.001 0.001,-10e-4 0.001,-10e-4 0.001,-10e-4 10e-4,-0.001 0.001,-10e-4 0.001,-10e-4 0.001,-0.001 0.001,-10e-4 0.001,-10e-4 10e-4,-0.001 0.001,-10e-4 0.001,-10e-4 0.001,-0.001 0.001,-10e-4 0.001,-10e-4 10e-4,-0.001 0.001,-10e-4 0.001,-10e-4 0.001,-10e-4 0.001,-0.001 0.001,-10e-4 10e-4,-10e-4 0.001,-0.001 0.001,-10e-4 0.001,-10e-4 0.001,-0.001 0.001,-10e-4 10e-4,-10e-4 0.001,-0.001 0.001,-10e-4 0.001,-10e-4 0.001,-0.001 0.001,-10e-4 10e-4,-10e-4 0.001,-10e-4 0.001,-0.001 0.001,-10e-4 0.001,-10e-4 0.001,-0.001 10e-4,-10e-4 0.001,-10e-4 0.001,-0.001 0.001,-10e-4 0.001,-10e-4 0.001,-0.001 10e-4,-10e-4 2.6e-4,-2.6e-4 2.7e-4,-2.7e-4 2.6e-4,-2.6e-4 2.6e-4,-2.6e-4 2.7e-4,-2.7e-4 2.6e-4,-2.6e-4 2.7e-4,-2.7e-4 2.6e-4,-2.6e-4 2.7e-4,-2.7e-4 2.6e-4,-2.6e-4 2.7e-4,-2.7e-4 2.6e-4,-2.6e-4 2.7e-4,-2.7e-4 2.6e-4,-2.6e-4 2.7e-4,-2.6e-4 2.6e-4,-2.7e-4 2.6e-4,-2.6e-4 2.7e-4,-2.7e-4 2.6e-4,-2.6e-4 2.7e-4,-2.7e-4 2.6e-4,-2.6e-4 2.7e-4,-2.7e-4 2.6e-4,-2.6e-4 2.7e-4,-2.7e-4 2.6e-4,-2.6e-4 2.7e-4,-2.7e-4 2.6e-4,-2.6e-4 2.6e-4,-2.6e-4 2.7e-4,-2.7e-4 2.6e-4,-2.6e-4 2.7e-4,-2.7e-4 2.6e-4,-2.6e-4 2.7e-4,-2.7e-4 2.6e-4,-2.6e-4 2.7e-4,-2.7e-4 2.6e-4,-2.6e-4 2.7e-4,-2.7e-4 2.6e-4,-2.6e-4 2.7e-4,-2.6e-4 2.6e-4,-2.7e-4 2.6e-4,-2.6e-4 2.7e-4,-2.7e-4 2.6e-4,-2.6e-4 2.7e-4,-2.7e-4 2.6e-4,-2.6e-4 2.7e-4,-2.7e-4 2.6e-4,-2.6e-4 2.7e-4,-2.7e-4 2.6e-4,-2.6e-4 2.7e-4,-2.7e-4 2.6e-4,-2.6e-4 2.6e-4,-2.6e-4 2.7e-4,-2.7e-4 2.6e-4,-2.6e-4 2.7e-4,-2.71e-4 2.6e-4,-2.6e-4 2.7e-4,-2.7e-4 2.6e-4,-2.6e-4 2.7e-4,-2.7e-4 2.6e-4,-2.6e-4 2.7e-4,-2.7e-4 2.6e-4,-2.6e-4 2.7e-4,-2.6e-4 2.6e-4,-2.7e-4 2.6e-4,-2.6e-4 2.7e-4,-2.7e-4 2.6e-4,-2.6e-4 2.7e-4,-2.7e-4 2.6e-4,-2.6e-4 2.7e-4,-2.7e-4 2.6e-4,-2.6e-4 2.7e-4,-2.7e-4 2.6e-4,-2.6e-4 2.7e-4,-2.7e-4 2.6e-4,-2.6e-4 2.6e-4,-2.6e-4 2.7e-4,-2.7e-4 2.6e-4,-2.6e-4 2.7e-4,-2.7e-4 2.6e-4,-2.6e-4 2.7e-4,-2.7e-4 2.6e-4,-2.6e-4 2.7e-4,-2.7e-4 2.6e-4,-2.6e-4 2.7e-4,-2.7e-4 2.6e-4,-2.6e-4 2.7e-4,-2.6e-4 2.6e-4,-2.7e-4 2.6e-4,-2.6e-4 2.7e-4,-2.7e-4 2.6e-4,-2.6e-4 2.7e-4,-2.7e-4 2.6e-4,-2.6e-4 2.7e-4,-2.7e-4 2.6e-4,-2.6e-4 2.7e-4,-2.7e-4 2.6e-4,-2.3e-4 2.7e-4,-2.7e-4 2.6e-4,-2.6e-4 2.6e-4,-2.4e-4 8e-5,-8e-5 8e-5,-8e-5 8e-5,-8e-5 8e-5,-8e-5 8e-5,-8e-5 8e-5,-8e-5 5e-5,-5e-5 8e-5,-8e-5 8e-5,-8e-5 8e-5,-8e-5 8e-5,-8e-5 8e-5,-8e-5 8e-5,-5e-5 8e-5,-8e-5 5e-5,-8e-5 8e-5,-8e-5 1.1e-4,-8e-5 8e-5,-5e-5 5e-5,-8e-5 8e-5,-8e-5 8e-5,-8e-5 8e-5,-8e-5 8e-5,-5e-5 8e-5,-8e-5 5e-5,-8e-5 8e-5,-8e-5 8e-5,-5e-5 8e-5,-8e-5 8e-5,-8e-5 5e-5,-5e-5 8e-5,-8e-5 8e-5,-8e-5 8e-5,-6e-5 8e-5,-7e-5 5e-5,-8e-5 8e-5,-8e-5 8e-5,-6e-5 5e-5,-8e-5 8e-5,-5e-5 8e-5,-8e-5 8e-5,-8e-5 5e-5,-8e-5 8e-5,-5e-5 8e-5,-8e-5 8e-5,-5e-5 5e-5,-8e-5 8e-5,-8e-5 8e-5,-5e-5 6e-5,-8e-5 8e-5,-6e-5 5e-5,-8e-5 8e-5,-7e-5 8e-5,-6e-5 5e-5,-8e-5 8e-5,-5e-5 8e-5,-8e-5 5e-5,-5e-5 8e-5,-8e-5 5e-5,-5e-5 8e-5,-8e-5 8e-5,-6e-5 6e-5,-8e-5 8e-5,-5e-5 7e-5,-8e-5 6e-5,-5e-5 8e-5,-8e-5 5e-5,-5e-5 5e-5,-8e-5 8e-5,-6e-5 5e-5,-5e-5 8e-5,-8e-5 8e-5,-5e-5 6e-5,-8e-5 8e-5,-5e-5 5e-5,-8e-5 8e-5,-6e-5 5e-5,-5e-5 5e-5,-8e-5 8e-5,-5e-5 6e-5,-5e-5 8e-5,-8e-5 5e-5,-6e-5 8e-5,-5e-5 5e-5,-8e-5 8e-5,-5e-5 5e-5,-5e-5 6e-5,-6e-5 5e-5,-8e-5 8e-5,-5e-5 5e-5,-5e-5 8e-5,-8e-5 5e-5,-5e-5 6e-5,-6e-5 5e-5,-5e-5 8e-5,-8e-5 5e-5,-5e-5 5e-5,-6e-5 6e-5,-5e-5 8e-5,-5e-5 5e-5,-8e-5 v 0 l 3e-5,-3e-5 h 2e-5 v 0 l 3e-5,-2e-5 v 0 -3e-5 h 3e-5 l 2e-5,-3e-5 v 0 -2e-5 h 3e-5 v -3e-5 h 3e-5 v 0 l 2e-5,-3e-5 v 0 l 3e-5,-2e-5 v 0 -3e-5 h 2e-5 l 3e-5,-3e-5 v 0 -2e-5 h 3e-5 2e-5 v -3e-5 0 l 3e-5,-3e-5 v 0 l 3e-5,-2e-5 h 2e-5 v -3e-5 0 l 3e-5,-2e-5 v 0 0 l 3e-5,-3e-5 h 2e-5 v -3e-5 0 l 3e-5,-2e-5 v 0 l 3e-5,-3e-5 v 0 h 2e-5 v -3e-5 h 3e-5 v -2e-5 h 2e-5 v -3e-5 h 3e-5 v 0 -3e-5 h 3e-5 l 2e-5,-2e-5 v 0 -3e-5 h 3e-5 v -3e-5 0 h 3e-5 l 2e-5,-2e-5 v 0 -3e-5 h 3e-5 v -2e-5 h 3e-5 v 0 l 2e-5,-3e-5 v 0 -3e-5 h 3e-5 3e-5 v -2e-5 0 l 2e-5,-3e-5 v 0 l 3e-5,-3e-5 v 0 l 3e-5,-2e-5 v 0 0 l 2e-5,-3e-5 v 0 l 3e-5,-3e-5 v 0 h 2e-5 v -2e-5 0 l 3e-5,-3e-5 v 0 -3e-5 h 3e-5 2e-5 v -2e-5 0 l 3e-5,-3e-5 h 3e-5 v 0 -3e-5 h 2e-5 v -2e-5 0 l 3e-5,-3e-5 h 3e-5 v 0 -2e-5 h 2e-5 v -3e-5 0 h 3e-5 l 3e-5,-3e-5 v 0 -2e-5 h 2e-5 v 0 -3e-5 h 3e-5 v -3e-5 h 3e-5 v 0 -2e-5 h 2e-5 v -3e-5 0 h 3e-5 l 2e-5,-3e-5 v 0 -2e-5 h 3e-5 v 0 l 3e-5,-3e-5 v 0 -3e-5 h 2e-5 v 0 -2e-5 h 3e-5 3e-5 v -3e-5 0 l 2e-5,-3e-5 v 0 0 l 3e-5,-2e-5 v 0 l 3e-5,-3e-5 v 0 0 l 2e-5,-2e-5 v 0 0 l 3e-5,-3e-5 v 0 l 3e-5,-3e-5 v 0 0 l 2e-5,-2e-5 h 3e-5 v 0 -3e-5 h 2e-5 v 0 -3e-5 h 3e-5 v -2e-5 h 3e-5 v 0 -3e-5 h 2e-5 v -3e-5 0 0 l 3e-5,-2e-5 h 3e-5 v 0 -3e-5 0 h 2e-5 v -3e-5 0 h 3e-5 l 3e-5,-2e-5 v 0 -3e-5 0 h 2e-5 l 3e-5,-2e-5 v 0 0 0 l 3e-5,-3e-5 v 0 -3e-5 h 2e-5 v 0 l 3e-5,-2e-5 v 0 0 -3e-5 h 3e-5 v 0 -3e-5 h 2e-5 v 0 l 3e-5,-2e-5 v 0 0 0 l 2e-5,-3e-5 v 0 0 l 3e-5,-3e-5 v 0 h 3e-5 v -2e-5 0 0 l 2e-5,-3e-5 v 0 h 3e-5 v 0 -3e-5 0 h 3e-5 v -2e-5 0 0 h 2e-5 v -3e-5 h 3e-5 v 0 -3e-5 0 h 3e-5 v -2e-5 0 0 h 2e-5 v -3e-5 h 3e-5 v 0 -2e-5 0 0 h 3e-5 v -3e-5 0 h 2e-5 v 0 -3e-5 h 3e-5 v 0 -2e-5 0 h 3e-5 v 0 -3e-5 0 0 h 2e-5 v 0 l 3e-5,-3e-5 v 0 0 -2e-5 0 h 2e-5 v 0 l 3e-5,-3e-5 v 0 0 0 l 3e-5,-3e-5 v 0 0 0 -2e-5 h 2e-5 v 0 0 h 3e-5 v -3e-5 0 0 0 l 3e-5,-3e-5 v 0 0 0 0 -2e-5 h 2e-5 v 0 h 3e-5 v -3e-5 0 0 0 0 0 0 0 0 0 0 -3e-5 h 3e-5 v 0 0 0 0 0 0 0 0 0 0 0 0 0 0 0 0 0 0 0 0 0 0 0 0 0 h 2e-5 v 0 0 -2e-5 0 0 0 0 0 0 0 0 0 0 0 h 3e-5 v 0 0 0 0 0 0 0 0 0 0 0 0 0 -3e-5 0 0 0 0 0 0 0 0 0 0 0 0 0 0 0 0 0 0 0 0 h 3e-5 v 0 0 0 0 0 0 -2e-5 0 0 0 0 0 0 0 0 0 0 0 0 0 0 0 0 0 0 0 0 0 h 2e-5 v 0 0 0 0 0 0 0 0 0 0 0 0 0 0 0 0 0 0 0 0 0 0 0 0 0 0 0 0 0 0 0 0 0 0 0 0 0 0 0 0 0 0 0 0 0 0 0 0 0 0 0 0 0 0 0 0 0 0 0 0 0 0 0 0 0 0 0 0 0 0 0 0 0 0 0 0 0 0 0 0 0 0 0 0 0 -3e-5 0 0 0 0 0 0 0 0 0 0 0 0 0 0 0 0 0 0 0 0 0 0 0 0 0 0 0 0 0 0 0 0 0 0 0 0 0 0 0 0 0 0 0 0 0 0 0 0 0 0 0 0 0 0 0 0 0 0 0 0 0 0 0 0 0 0 0 0 0 0 0 0 0 0 0 0 0 0 0 0 0 0 0 0 0 0 0 0 0 0 0 0 0 0 0 0 0 0 0 0 0 0 0 0 0 0 0 0 0 0 0 0 0 0 0 0 0 0 0 0 0 0 0 0 0 0 0 0 0 0 0 0 0 0 0 0 0 0 0 0 0 0 0 0 0 0 0 0 0 0 0 0 0 0 0 0 0 0 0 0 0 0 0 0 0 0 0 0 0 0 0 0 0 0 0 0 0 0 0 0 0 0 0 0 0 0 0 0 0 0 0 0 0 0 0 0 0 0 0 0 0 0 0 0 0 0 0 0 0 0 0 0 0 0 0 0 0 0 0 0 0 0 0 0 0 0 0 0 0 0 0 0 0 0 0 0 0 0 0 0 0 0 0 0 0 0 0 0 0 0 0 0 0 0 0 0 0 0 0 0 0 0 0 0 0 0 0 0 0 0 0 0 0 0 0 0 0 0 0 0 0 0 0 0 0 0 0 0 0 0 0 0 0 0 0 0 0 0 0 0 0 0 0 0 0 0 0 0 0 0 0 0 0 0 0 0 0 0 0 0 0 0 0 0 0 0 0 0 0 0 0 0 0 0 0 0 0 0 0 0 0 0 0 0 0 0 0 0 0 0 0 0 0 0 0 0 0 0 0 0 0 0 0 0 0 0 0 0 0 0 0 0 0 0 0 0 0 0 0 0 0 0 0 0 0 0 0 0 0 0 0 0 0 0 0 0 0 0 0 0 0 0 0 0 0 0 0 0 0 0 0 0 0 0 0 0 0 0 0 0 0 0 0 0 0 0 0 0 0 0 0 0 0 0 0 0 0 0 0 0 0 0 0 0 0 0 0 0 0 0 0 0 0 0 0 0 0 0 0 0 0 0 0 0 0 0 0 0 0 0 0 0 0 0 0 0 0 0 0 0 0 0 0 0 0 0 0 0 0 0 0 0 0 0 0 0 0 0 0 0 0 0 0 0 0 0 0 0 0 0 0 0 0 0 0 0 0 0 0 0 0 0 0 0 0 0 0 0 0 0 0 0 0 0 0 0 0 0 0 0 0 0 0 0 0 0 0 0 0 0 0 0 0 0 0 0 0 0 0 0 0 0 0 0 0 0 0 0 0 0 0 0 0 0 0 0 0 0 0 0 0 0 0 0 0 0 0 0 0 0 0 0 0 0 0 0 0 0 0 0 0 0 0 0 0 0 0 0 0 0 0 0 0 0 0 0 0 0 0 0 0 0 0 0 0 0 0 0 0 0 0 0 0 0 0 0 0 0 0 0 0 0 0 0 0 0 0 0 0 0 0 0 0 0 0 0 0 0 0 0 0 0 0 0 0 0 0 0 0 0 0 0 0 0 0 0 0 0 0 0 0 0 0 0 0 0 0 0 0 0 0 0 0 0 0 0 0 0 0 0 0 0 0 0 0 0 0 0 0 0 0 0 0 0 0 0 0 0 0 0 0 0 0 0 0 0 0 0 0 0 0 0 0 0 0 0 0 0 0 0 0 0 0 0 0 0 0 0 0 0 0 0 0 0 0 0 0 0 0 0 0 0 0 0 0 0 0 0 0 0 0 0 0 0 0 0 0 0 0 0 0 0 0 0 0 0 0 0 0 0 0 0 0 0 0 0 0 0 0 0 0 0 0 0 0 0 0 0 0 0 0 0 0 0 0 0 0 0 0 0 0 0 0 0 0 0 0 0 0 0 0 0 0 0 0 0 0 0 0 0 0 0 0 0 0 0 0 0 0 0 0 0 0 0 0 0 0 0 0 0 0 0 0 0 0 0 0 0 0 0 0 0 0 0 0 0 0 0 0 0 0 0 0 0 0 0 0 0 0 0 0 0 0 0 0 0 0 0 0 0 0 0 0 0 0 0 0 0 0 0 0 0 0 0 0 0 0 0 0 0 0 0 0 0 0 0 0 0 0 0 0 0 0 0 0 0 0 0 0 0 0 0 0 0 0 0 0 0 0 0 0 0 0 0 0 0 0 0 0 0 0 0 0 0 0 0 0 0 0 0 0 0 0 0 0 0 0 0 0 0 0 0 0 0 0 0 0 0 0 0 0 0 0 0 0 0 0 0 0 0 0 0 0 0 0 0 0 0 0 0 0 0 0 0 0 0 0 0 0 0 0 0 0 0 0 0 0 0 0 0 0 0 0 0 0 0 0 0 0 0 0 0 0 0 0 0 0 0 0 0 0 0 0 0 0 0 0 0 0 0 0 0 0 0 0 0 0 0 0 0 0 0 0 0 0 0 0 0 0 0 0 0 0 0 0 0 0 0 0 0 0 0 0 0 0 0 0 0 0 0 0 0 0 0 0 0 0 0 0 0 0 0 0 0 0 0 0 0 0 0 0 0 0 0 0 0 0 0 0 0 0 0 0 0 0 0 0 0 0 0 0 0 0 0 0 0 0 0 0 0 0 0 0 0 0 0 0 0 0 0 0 0 0 0 0 0 0 0 0 0 0 0 0 0 0 0 0 0 0 0 0 0 0 0 0 0 0 0 0 0 0 0 0 0 0 0 0 0 0 0 0 0 0 0 0 0 0 0 0 0 0 0 0 0 0 0 0 0 0 0 0 0 0 0 0 0 0 0 0 0 0 0 0 0 0 0 0 0 0 0 0 0 0 0 0 0 0 0 0 0 0 0 0 0 0 0 0 0 0 0 0 0 0 0 0 0 0 0 0 0 0 0 0 0 0 0 0 0 0 0 0 0 0 0 0 0 0 0 0 0 0 0 0 0 0 0 0 0 0 0 0 0 0 0 0 0 0 0 0 0 0 0 0 0 0 0 0 0 0 0 0 0 0 0 0 0 0 0 0 0 0 0 0 0 0 0 0 0 0 0 0 0 0 0 0 0 0 0 0 0 0 0 0 0 0 0 0 0 0 0 0 0 0 0 0 0 0 0 0 0 0 0 0 0 0 0 0 0 0 0 0 0 0 0 0 0 0 0 0 0 0 0 0 0 0 0 0 0 0 0 0 0 0 0 0 0 0 0 0 0 0 0 0 0 0 0 0 0 0 0 0 0 0 0 0 0 0 0 0 0 0 0 0 0 0 0 0 0 0 0 0 0 0 0 0 0 0 0 0 0 0 0 0 0 0 0 0 0 0 0 0 0 0 0 0 0 0 0 0 0 0 0 0 0 0 0 0 0 0 0 0 0 0 0 0 0 0 0 0 0 0 0 0 0 0 0 0 0 0 0 0 0 0 0 0 0 0 0 0 0 0 0 0 0 0 0 0 0 0 0 0 0 0 0 0 0 0 0 0 0 0 0 0 0 0 0 0 0 0 0 0 0 0 0 0 0 0 0 0 0 0 0 0 0 0 0 0 0 0 0 0 0 0 0 0 0 0 0 0 0 0 0 0 0 0 0 0 0 0 0 0 0 0 0 0 0 0 0 0 0 0 0 0 0 0 0 0 0 0 0"
       style="font-style:normal;font-weight:normal;font-size:12px;font-family:Dialog;color-interpolation:linearRGB;fill:none;fill-opacity:1;fill-rule:evenodd;stroke:#0000ff;stroke-width:0.264583;stroke-linecap:butt;stroke-linejoin:round;stroke-miterlimit:10;stroke-dasharray:none;stroke-dashoffset:0;stroke-opacity:1;color-rendering:optimizeQuality;image-rendering:optimizeQuality;shape-rendering:auto;text-rendering:geometricPrecision"
       id="path166" />
    <text
       x="71.115196"
       xml:space="preserve"
       y="43.868286"
       style="font-style:normal;font-weight:normal;font-size:5.29167px;font-family:SansSerif;color-interpolation:linearRGB;fill:#000000;fill-opacity:1;stroke:none;stroke-width:0.264583;stroke-linecap:square;stroke-linejoin:miter;stroke-miterlimit:10;stroke-dasharray:none;stroke-dashoffset:0;stroke-opacity:1;color-rendering:optimizeQuality;image-rendering:optimizeQuality;shape-rendering:auto;text-rendering:geometricPrecision"
       id="text170">Black Hole</text>
    <text
       x="99.715088"
       xml:space="preserve"
       y="102.74473"
       style="font-style:normal;font-weight:normal;font-size:3.52777px;font-family:SansSerif;color-interpolation:linearRGB;fill:#000000;fill-opacity:1;stroke:none;stroke-width:0.264583;stroke-linecap:square;stroke-linejoin:miter;stroke-miterlimit:10;stroke-dasharray:none;stroke-dashoffset:0;stroke-opacity:1;color-rendering:optimizeQuality;image-rendering:optimizeQuality;shape-rendering:auto;text-rendering:geometricPrecision"
       id="text170-8"
       transform="rotate(-37)">Event Horizon</text>
    <text
       x="193.02278"
       xml:space="preserve"
       y="-13.296018"
       style="font-style:normal;font-weight:normal;font-size:3.52777px;font-family:SansSerif;color-interpolation:linearRGB;fill:#000000;fill-opacity:1;stroke:none;stroke-width:0.264583;stroke-linecap:square;stroke-linejoin:miter;stroke-miterlimit:10;stroke-dasharray:none;stroke-dashoffset:0;stroke-opacity:1;color-rendering:optimizeQuality;image-rendering:optimizeQuality;shape-rendering:auto;text-rendering:geometricPrecision"
       id="text170-8-7"
       transform="rotate(40.000001)"><tspan
         sodipodi:role="line"
         id="tspan230"
         x="193.02278"
         y="-13.296018"
         style="stroke-width:0.264583">Rocketship</tspan><tspan
         sodipodi:role="line"
         id="tspan232"
         x="193.02278"
         y="-8.8863049"
         style="stroke-width:0.264583">trajectory</tspan></text>
    <text
       x="-23.034533"
       xml:space="preserve"
       y="158.03345"
       style="font-style:normal;font-weight:normal;font-size:3.52777px;font-family:SansSerif;color-interpolation:linearRGB;fill:#000000;fill-opacity:1;stroke:none;stroke-width:0.264583;stroke-linecap:square;stroke-linejoin:miter;stroke-miterlimit:10;stroke-dasharray:none;stroke-dashoffset:0;stroke-opacity:1;color-rendering:optimizeQuality;image-rendering:optimizeQuality;shape-rendering:auto;text-rendering:geometricPrecision"
       id="text170-8-3"
       transform="rotate(-75.000001)">r = const.</text>
    <text
       x="30.175489"
       xml:space="preserve"
       y="127.60555"
       style="font-style:normal;font-weight:normal;font-size:3.52777px;font-family:SansSerif;color-interpolation:linearRGB;fill:#000000;fill-opacity:1;stroke:none;stroke-width:0.264583;stroke-linecap:square;stroke-linejoin:miter;stroke-miterlimit:10;stroke-dasharray:none;stroke-dashoffset:0;stroke-opacity:1;color-rendering:optimizeQuality;image-rendering:optimizeQuality;shape-rendering:auto;text-rendering:geometricPrecision"
       id="text170-7"
       transform="rotate(-63)">Probe</text>
  </g>
</svg>
