<svg xmlns="http://www.w3.org/2000/svg" xmlns:xlink="http://www.w3.org/1999/xlink" x="0" y="0" width="702" height="256.8125" style="
        width:702px;
        height:256.8125px;
        background: transparent;
        fill: none;
">
        
        
        <svg xmlns="http://www.w3.org/2000/svg" class="role-diagram-draw-area" style="overflow: visible;"><g class="shapes-region" style="stroke: black; fill: none;"><g class="shape"><path class="real" d=" M334.11,114.44 C348.78,112.11 357.07,113.57 365.44,119.11 C373.82,124.65 356.44,119.11 356.78,134.78 C357.11,150.44 367.11,148.11 358.11,153.44 C349.11,158.78 351.44,155.11 331.78,151.11 C312.11,147.11 323.44,143.78 335.78,145.11 C348.11,146.44 343.1,140.58 337.44,138.44 C331.79,136.31 324.52,140.77 320.11,142.44 C315.71,144.12 307.78,134.44 293.11,134.44 C278.44,134.44 309.69,130.45 318.44,129.11 C327.2,127.77 338.11,129.11 339.78,125.44 C341.44,121.78 331.61,121.71 329.03,119.63 C326.44,117.56 319.44,116.78 334.11,114.44 Z" style="stroke: rgb(245, 166, 35); stroke-opacity: 1; stroke-width: 1; fill: rgb(248, 220, 28); fill-opacity: 1;"/></g><g class="composite-shape"><path class="real" d=" M249.27,125.34 C245.13,126.73 241.35,126.24 240.84,124.24 C240.33,122.24 243.27,119.49 247.42,118.1 C245.36,119.58 244.19,121.44 244.59,122.98 C244.99,124.53 246.84,125.37 249.27,125.34 Z" style="stroke-width: 1; stroke: rgb(0, 0, 0); fill: none; fill-opacity: 1;"/></g><g class="composite-shape"><path class="real" d=" M475,133.94 L440.77,153.94 L440.77,113.94 Z" style="stroke-width: 1; stroke: rgb(0, 0, 0); fill: rgb(126, 179, 237); fill-opacity: 1;"/></g><g class="composite-shape"><path class="real" d=" M355.57,113.94 L440.77,113.94 L440.77,153.94 L355.57,153.94 Z" style="stroke-width: 1; stroke: rgb(0, 0, 0); fill: rgb(126, 179, 237); fill-opacity: 1;"/></g><g class="composite-shape"><path class="real" d=" M413.2,130.77 C413.2,124.52 417.62,119.45 423.08,119.45 C428.55,119.45 432.97,124.52 432.97,130.77 C432.97,137.02 428.55,142.09 423.08,142.09 C417.62,142.09 413.2,137.02 413.2,130.77 Z" style="stroke-width: 1; stroke: rgb(0, 0, 0); fill: rgb(255, 255, 255); fill-opacity: 1;"/></g><g class="composite-shape"><path class="real" d=" M345.57,100.87 L408.33,113.94 L345.57,113.94 Z" style="stroke-width: 1; stroke: rgb(0, 0, 0); fill: rgb(126, 179, 237); fill-opacity: 1;"/></g><g class="composite-shape"><path class="real" d=" M342.81,167 L405.57,153.94 L342.81,153.94 Z" style="stroke-width: 1; stroke: rgb(0, 0, 0); fill: rgb(126, 179, 237); fill-opacity: 1;"/></g><g class="arrow-line"><path class="connection real" stroke-dasharray="" d="  M344.73,132.84 L407.49,132.84" style="stroke: rgb(0, 0, 0); stroke-width: 1; fill: rgb(74, 144, 226); fill-opacity: 1;"/></g><g class="composite-shape"><path class="real" d=" M419.47,129.35 C419.47,125.93 421.9,123.15 424.89,123.15 C427.88,123.15 430.31,125.93 430.31,129.35 C430.31,132.78 427.88,135.56 424.89,135.56 C421.9,135.56 419.47,132.78 419.47,129.35 Z" style="stroke-width: 1; stroke: rgb(0, 0, 0); fill: none; fill-opacity: 1;"/></g><g class="arrow-line"><path class="connection real" stroke-dasharray="" d="  M417,134.69 L424.61,139.77" style="stroke: rgb(0, 0, 0); stroke-width: 1; fill: none; fill-opacity: 1;"/></g><g class="arrow-line"><path class="connection real" stroke-dasharray="" d="  M424.61,142.09 L424.89,135.56" style="stroke: rgb(0, 0, 0); stroke-width: 1; fill: none; fill-opacity: 1;"/></g><g class="arrow-line"><path class="connection real" stroke-dasharray="" d="  M424.61,139.77 L429.55,139.04" style="stroke: rgb(0, 0, 0); stroke-width: 1; fill: none; fill-opacity: 1;"/></g><g class="arrow-line"><path class="connection real" stroke-dasharray="6 6" d="  M178.71,134.01 L338.46,134.01" style="stroke: rgb(0, 0, 0); stroke-width: 1; fill: none; fill-opacity: 1;"/></g><g class="composite-shape"><path class="real" d=" M121.66,134.01 C121.66,115.97 134.43,101.35 150.18,101.35 C165.94,101.35 178.71,115.97 178.71,134.01 C178.71,152.05 165.94,166.67 150.18,166.67 C134.43,166.67 121.66,152.05 121.66,134.01 Z" style="stroke-width: 1; stroke: rgb(0, 0, 0); fill: rgb(0, 0, 0); fill-opacity: 1;"/></g><g class="composite-shape"><path class="real" d=" M235.76,134.01 C235.76,130.4 238.32,127.48 241.47,127.48 C244.62,127.48 247.17,130.4 247.17,134.01 C247.17,137.62 244.62,140.54 241.47,140.54 C238.32,140.54 235.76,137.62 235.76,134.01 Z" style="stroke-width: 1; stroke: rgb(0, 0, 0); fill: rgb(144, 19, 254); fill-opacity: 1;"/></g><g class="arrow-line"><path class="connection real" stroke-dasharray="" d="  M235.76,134.01 L209.24,134.01" style="stroke: rgb(0, 0, 0); stroke-width: 1; fill: none; fill-opacity: 1;"/><g stroke="#000" transform="matrix(1,-2.4492935982947064e-16,2.4492935982947064e-16,1,207.2356107206922,134.0093566861891)" style="stroke: rgb(0, 0, 0); stroke-width: 1;"><path d=" M10.93,-3.29 Q4.96,-0.45 0,0 Q4.96,0.45 10.93,3.29"/></g></g><g class="arrow-line"><path class="connection real" stroke-dasharray="" d="  M242.18,125.48 L241.76,127.86" style="stroke: rgb(0, 0, 0); stroke-width: 1; fill: none; fill-opacity: 1;"/></g><g class="composite-shape"><path class="real" d=" M249.56,149.15 C245.35,148.03 242.27,145.48 242.68,143.45 C243.09,141.42 246.84,140.68 251.04,141.8 C248.62,141.93 246.81,142.89 246.49,144.46 C246.17,146.03 247.43,147.81 249.56,149.15 Z" style="stroke-width: 1; stroke: rgb(0, 0, 0); fill: none; fill-opacity: 1;"/></g><g class="arrow-line"><path class="connection real" stroke-dasharray="" d="  M241.94,141.17 L242.68,143.45" style="stroke: rgb(0, 0, 0); stroke-width: 1; fill: none; fill-opacity: 1;"/></g><g class="arrow-line"><path class="connection real" stroke-dasharray="" d="  M244.59,122.98 L247.66,122.09" style="stroke: rgb(0, 0, 0); stroke-width: 1; fill: none; fill-opacity: 1;"/></g><g class="arrow-line"><path class="connection real" stroke-dasharray="" d="  M249.7,145.62 L246.49,144.46" style="stroke: rgb(0, 0, 0); stroke-width: 1; fill: none; fill-opacity: 1;"/></g><g class="composite-shape"><path class="real" d=" M249.7,145.62 C249.96,144.76 250.77,144.32 251.52,144.62 C252.26,144.91 252.65,145.85 252.39,146.7 C252.13,147.55 251.31,148 250.57,147.7 C249.83,147.4 249.44,146.47 249.7,145.62 Z" style="stroke-width: 1; stroke: rgb(0, 0, 0); fill: none; fill-opacity: 1;"/></g><g class="composite-shape"><path class="real" d=" M248.63,120.07 C249.39,119.82 250.18,120.31 250.4,121.18 C250.62,122.04 250.18,122.95 249.43,123.2 C248.67,123.46 247.88,122.96 247.66,122.09 C247.44,121.23 247.87,120.32 248.63,120.07 Z" style="stroke-width: 1; stroke: rgb(0, 0, 0); fill: none; fill-opacity: 1;"/></g><g class="composite-shape"><path class="real" d=" M401.87,117.09 C406.19,116.97 409.73,118.56 409.78,120.65 C409.82,122.73 406.35,124.51 402.03,124.63 C404.36,123.82 405.9,122.37 405.87,120.75 C405.83,119.14 404.23,117.78 401.87,117.09 Z" style="stroke-width: 1; stroke: rgb(0, 0, 0); fill: none; fill-opacity: 1;"/></g><g class="arrow-line"><path class="connection real" stroke-dasharray="" d="  M402.51,120.56 L405.87,120.75" style="stroke: rgb(0, 0, 0); stroke-width: 1; fill: none; fill-opacity: 1;"/></g><g class="composite-shape"><path class="real" d=" M402.51,120.56 C402.44,121.45 401.75,122.12 400.96,122.04 C400.18,121.97 399.6,121.18 399.66,120.28 C399.73,119.38 400.42,118.71 401.21,118.79 C401.99,118.87 402.57,119.66 402.51,120.56 Z" style="stroke-width: 1; stroke: rgb(0, 0, 0); fill: none; fill-opacity: 1;"/></g><g class="arrow-line"><path class="connection real" stroke-dasharray="" d="  M259.15,119.88 Q261.65,117.38 264.15,119.88 Q266.65,122.38 269.15,119.88 Q271.65,117.38 274.15,119.88 Q276.65,122.38 279.15,119.88 Q281.65,117.38 284.15,119.88 Q286.65,122.38 289.15,119.88 Q291.65,117.38 294.15,119.88 Q296.65,122.38 299.15,119.88 Q301.65,117.38 304.15,119.88 Q306.65,122.38 309.15,119.88 Q311.65,117.38 314.15,119.88 Q316.65,122.38 319.15,119.88 Q321.65,117.38 324.15,119.88 Q326.65,122.38 329.15,119.88 Q331.65,117.38 334.15,119.88 Q336.65,122.38 339.15,119.88 Q341.65,117.38 344.15,119.88 Q346.65,122.38 349.15,119.88 Q351.65,117.38 354.15,119.88 Q356.65,122.38 359.15,119.88 Q361.65,117.38 364.15,119.88 Q366.65,122.38 369.15,119.88 Q371.65,117.38 374.15,119.88 Q376.65,122.38 379.15,119.88 Q381.65,117.38 384.15,119.88 L386.08,119.88 L394.08,119.88" style="stroke: rgb(0, 0, 0); stroke-width: 1; fill: none; fill-opacity: 1;"/><g stroke="#000" transform="matrix(-1,1.2246467991473532e-16,-1.2246467991473532e-16,-1,396.0793215673441,119.88287240717536)" style="stroke: rgb(0, 0, 0); stroke-width: 1;"><path d=" M10.93,-3.29 Q4.96,-0.45 0,0 Q4.96,0.45 10.93,3.29"/></g></g><g class="composite-shape"><path class="real" d=" M402.45,141.91 C406.76,141.79 410.3,143.38 410.35,145.47 C410.39,147.55 406.92,149.33 402.6,149.45 C404.93,148.64 406.47,147.19 406.44,145.57 C406.4,143.96 404.8,142.6 402.45,141.91 Z" style="stroke-width: 1; stroke: rgb(0, 0, 0); fill: none; fill-opacity: 1;"/></g><g class="arrow-line"><path class="connection real" stroke-dasharray="" d="  M403.08,145.38 L406.44,145.57" style="stroke: rgb(0, 0, 0); stroke-width: 1; fill: none; fill-opacity: 1;"/></g><g class="composite-shape"><path class="real" d=" M403.08,145.38 C403.01,146.27 402.32,146.94 401.53,146.86 C400.75,146.79 400.17,146 400.24,145.1 C400.3,144.2 400.99,143.53 401.78,143.61 C402.56,143.69 403.14,144.48 403.08,145.38 Z" style="stroke-width: 1; stroke: rgb(0, 0, 0); fill: none; fill-opacity: 1;"/></g><g class="arrow-line"><path class="connection real" stroke-dasharray="" d="  M396.08,146.01 Q393.58,148.51 391.08,146.01 Q388.58,143.51 386.08,146.01 Q383.58,148.51 381.08,146.01 Q378.58,143.51 376.08,146.01 Q373.58,148.51 371.08,146.01 Q368.58,143.51 366.08,146.01 Q363.58,148.51 361.08,146.01 Q358.58,143.51 356.08,146.01 Q353.58,148.51 351.08,146.01 Q348.58,143.51 346.08,146.01 Q343.58,148.51 341.08,146.01 Q338.58,143.51 336.08,146.01 Q333.58,148.51 331.08,146.01 Q328.58,143.51 326.08,146.01 Q323.58,148.51 321.08,146.01 Q318.58,143.51 316.08,146.01 Q313.58,148.51 311.08,146.01 Q308.58,143.51 306.08,146.01 Q303.58,148.51 301.08,146.01 Q298.58,143.51 296.08,146.01 Q293.58,148.51 291.08,146.01 Q288.58,143.51 286.08,146.01 Q283.58,148.51 281.08,146.01 Q278.58,143.51 276.08,146.01 Q273.58,148.51 271.08,146.01 L269.15,146.01 L261.15,146.01" style="stroke: rgb(0, 0, 0); stroke-width: 1; fill: none; fill-opacity: 1;"/><g stroke="#000" transform="matrix(1,-2.4492935982947064e-16,2.4492935982947064e-16,1,259.1526038612962,146.0093566861891)" style="stroke: rgb(0, 0, 0); stroke-width: 1;"><path d=" M10.93,-3.29 Q4.96,-0.45 0,0 Q4.96,0.45 10.93,3.29"/></g></g><g class="composite-shape"><path class="real" d=" M397.43,47.93 C407.06,47.85 414.93,56.09 415,66.32 C415.07,76.56 407.32,84.92 397.69,85 C388.06,85.08 380.19,76.84 380.12,66.6 C380.05,56.37 387.8,48 397.43,47.93 Z" style="stroke-width: 1; stroke: rgb(0, 0, 0); fill: none; fill-opacity: 1;"/></g><g class="arrow-line"><path class="connection real" stroke-dasharray="" d="  M415,66.32 L410.61,66.36" style="stroke: rgb(0, 0, 0); stroke-width: 1; fill: none; fill-opacity: 1;"/></g><g class="arrow-line"><path class="connection real" stroke-dasharray="" d="  M384.8,66.57 L380.42,66.6" style="stroke: rgb(0, 0, 0); stroke-width: 1; fill: none; fill-opacity: 1;"/></g><g class="arrow-line"><path class="connection real" stroke-dasharray="" d="  M397.61,52.34 L397.43,47.93" style="stroke: rgb(0, 0, 0); stroke-width: 1; fill: none; fill-opacity: 1;"/></g><g class="arrow-line"><path class="connection real" stroke-dasharray="" d="  M397.98,85 L397.9,80.34" style="stroke: rgb(0, 0, 0); stroke-width: 1; fill: none; fill-opacity: 1;"/></g><g class="arrow-line"><path class="connection real" stroke-dasharray="" d="  M413.18,75.05 L409.29,72.89" style="stroke: rgb(0, 0, 0); stroke-width: 1; fill: none; fill-opacity: 1;"/></g><g class="arrow-line"><path class="connection real" stroke-dasharray="" d="  M386.45,60.04 L382.56,57.88" style="stroke: rgb(0, 0, 0); stroke-width: 1; fill: none; fill-opacity: 1;"/></g><g class="arrow-line"><path class="connection real" stroke-dasharray="" d="  M404.01,54.02 L405.8,50.03" style="stroke: rgb(0, 0, 0); stroke-width: 1; fill: none; fill-opacity: 1;"/></g><g class="arrow-line"><path class="connection real" stroke-dasharray="" d="  M389.94,82.89 L391.93,78.73" style="stroke: rgb(0, 0, 0); stroke-width: 1; fill: none; fill-opacity: 1;"/></g><g class="arrow-line"><path class="connection real" stroke-dasharray="" d="  M407.05,82.44 L404.71,78.5" style="stroke: rgb(0, 0, 0); stroke-width: 1; fill: none; fill-opacity: 1;"/></g><g class="arrow-line"><path class="connection real" stroke-dasharray="" d="  M390.74,55.05 L388.4,51.11" style="stroke: rgb(0, 0, 0); stroke-width: 1; fill: none; fill-opacity: 1;"/></g><g class="arrow-line"><path class="connection real" stroke-dasharray="" d="  M408.73,59.35 L412.17,56.86" style="stroke: rgb(0, 0, 0); stroke-width: 1; fill: none; fill-opacity: 1;"/></g><g class="arrow-line"><path class="connection real" stroke-dasharray="" d="  M382.99,76.69 L386.67,74.15" style="stroke: rgb(0, 0, 0); stroke-width: 1; fill: none; fill-opacity: 1;"/></g><g class="arrow-line"><path class="connection real" stroke-dasharray="" d="  M397.56,66.46 L400.45,50.33" style="stroke: rgb(0, 0, 0); stroke-width: 1; fill: none; fill-opacity: 1;"/><g stroke="none" fill="#000" transform="matrix(-0.1765693924534551,0.9842881944068098,-0.9842881944068098,-0.1765693924534551,400.8064270019532,48.36458396911621)" style="stroke: none; fill: rgb(0, 0, 0); stroke-width: 1;"><path d=" M8.4,-2.1 L0,0 L8.4,2.1 Z"/></g></g><g class="arrow-line"><path class="connection real" stroke-dasharray="" d="  M397.56,66.46 L411.88,70.34" style="stroke: rgb(0, 0, 0); stroke-width: 1; fill: none; fill-opacity: 1;"/><g stroke="none" fill="#000" transform="matrix(-0.9651993018659999,-0.2615154061950967,0.2615154061950967,-0.9651993018659999,413.8064270019532,70.86458396911621)" style="stroke: none; fill: rgb(0, 0, 0); stroke-width: 1;"><path d=" M4.8,-1.2 L0,0 L4.8,1.2 Z"/></g></g><g class="arrow-line"><path class="connection real" stroke-dasharray="6 6" d="  M475,133.79 L543.6,133.1" style="stroke: rgb(0, 0, 0); stroke-width: 1; fill: none; fill-opacity: 1;"/><g stroke="#000" transform="matrix(-0.9999487637875227,0.01012273677445776,-0.01012273677445776,-0.9999487637875227,545.602595821214,133.07626796193864)" style="stroke: rgb(0, 0, 0); stroke-width: 1;"><path d=" M10.93,-3.29 Q4.96,-0.45 0,0 Q4.96,0.45 10.93,3.29"/></g></g><g class="composite-shape"><path class="real" d=" M542.4,47.93 C552.03,47.85 559.9,56.09 559.97,66.32 C560.05,76.56 552.3,84.92 542.67,85 C533.03,85.08 525.17,76.84 525.09,66.6 C525.02,56.37 532.77,48 542.4,47.93 Z" style="stroke-width: 1; stroke: rgb(0, 0, 0); fill: none; fill-opacity: 1;"/></g><g class="arrow-line"><path class="connection real" stroke-dasharray="" d="  M559.97,66.32 L555.58,66.36" style="stroke: rgb(0, 0, 0); stroke-width: 1; fill: none; fill-opacity: 1;"/></g><g class="arrow-line"><path class="connection real" stroke-dasharray="" d="  M529.78,66.57 L525.39,66.6" style="stroke: rgb(0, 0, 0); stroke-width: 1; fill: none; fill-opacity: 1;"/></g><g class="arrow-line"><path class="connection real" stroke-dasharray="" d="  M542.58,52.34 L542.4,47.93" style="stroke: rgb(0, 0, 0); stroke-width: 1; fill: none; fill-opacity: 1;"/></g><g class="arrow-line"><path class="connection real" stroke-dasharray="" d="  M542.96,85 L542.87,80.34" style="stroke: rgb(0, 0, 0); stroke-width: 1; fill: none; fill-opacity: 1;"/></g><g class="arrow-line"><path class="connection real" stroke-dasharray="" d="  M558.15,75.05 L554.26,72.89" style="stroke: rgb(0, 0, 0); stroke-width: 1; fill: none; fill-opacity: 1;"/></g><g class="arrow-line"><path class="connection real" stroke-dasharray="" d="  M531.43,60.04 L527.54,57.88" style="stroke: rgb(0, 0, 0); stroke-width: 1; fill: none; fill-opacity: 1;"/></g><g class="arrow-line"><path class="connection real" stroke-dasharray="" d="  M548.98,54.02 L550.77,50.03" style="stroke: rgb(0, 0, 0); stroke-width: 1; fill: none; fill-opacity: 1;"/></g><g class="arrow-line"><path class="connection real" stroke-dasharray="" d="  M534.91,82.89 L536.9,78.73" style="stroke: rgb(0, 0, 0); stroke-width: 1; fill: none; fill-opacity: 1;"/></g><g class="arrow-line"><path class="connection real" stroke-dasharray="" d="  M552.03,82.44 L549.68,78.5" style="stroke: rgb(0, 0, 0); stroke-width: 1; fill: none; fill-opacity: 1;"/></g><g class="arrow-line"><path class="connection real" stroke-dasharray="" d="  M535.72,55.05 L533.37,51.11" style="stroke: rgb(0, 0, 0); stroke-width: 1; fill: none; fill-opacity: 1;"/></g><g class="arrow-line"><path class="connection real" stroke-dasharray="" d="  M553.71,59.35 L557.14,56.86" style="stroke: rgb(0, 0, 0); stroke-width: 1; fill: none; fill-opacity: 1;"/></g><g class="arrow-line"><path class="connection real" stroke-dasharray="" d="  M527.97,76.69 L531.65,74.15" style="stroke: rgb(0, 0, 0); stroke-width: 1; fill: none; fill-opacity: 1;"/></g><g class="arrow-line"><path class="connection real" stroke-dasharray="" d="  M542.53,66.46 L552.96,55.09" style="stroke: rgb(0, 0, 0); stroke-width: 1; fill: none; fill-opacity: 1;"/><g stroke="none" fill="#000" transform="matrix(-0.67559020761566,0.7372773368101242,-0.7372773368101242,-0.67559020761566,554.3064270019531,53.61458396911621)" style="stroke: none; fill: rgb(0, 0, 0); stroke-width: 1;"><path d=" M8.4,-2.1 L0,0 L8.4,2.1 Z"/></g></g><g class="arrow-line"><path class="connection real" stroke-dasharray="" d="  M542.53,66.46 L546.33,81.92" style="stroke: rgb(0, 0, 0); stroke-width: 1; fill: none; fill-opacity: 1;"/><g stroke="none" fill="#000" transform="matrix(-0.23853345757858116,-0.971134279909636,0.971134279909636,-0.23853345757858116,546.8064270019531,83.86458396911621)" style="stroke: none; fill: rgb(0, 0, 0); stroke-width: 1;"><path d=" M4.8,-1.2 L0,0 L4.8,1.2 Z"/></g></g><g/></g><g/><g/><g/></svg>
        <svg xmlns="http://www.w3.org/2000/svg" xmlns:xlink="http://www.w3.org/1999/xlink" width="700" height="254.8125" style="width:700px;height:254.8125px;font-family:Asana-Math, Asana;background:transparent;"><g transform="matrix(0.021465900930430555,0.9997695810021652,-0.9997695810021652,0.021465900930430555,548.8335620185628,-297.8689749528992)"><g><g><text x="422.2083435058594" y="126.85418701171875" style="white-space:pre;stroke:none;fill:rgb(0,0,0);fill-opacity:1;font-size:7.5px;font-family:Arial, Helvetica, sans-serif;font-weight:400;font-style:normal;dominant-baseline:text-before-edge;text-decoration:none solid rgb(0, 0, 0);">:)</text></g></g></g><g><g><g><text x="113.23959350585938" y="183.16668701171875" style="white-space:pre;stroke:none;fill:rgb(0,0,0);fill-opacity:1;font-size:15px;font-family:Arial, Helvetica, sans-serif;font-weight:400;font-style:normal;dominant-baseline:text-before-edge;text-decoration:none solid rgb(0, 0, 0);">Black Hole </text></g></g></g><g><g><g><text x="219.16665649414062" y="51.739593505859375" style="white-space:pre;stroke:none;fill:rgb(0,0,0);fill-opacity:1;font-size:15px;font-family:Arial, Helvetica, sans-serif;font-weight:400;font-style:normal;dominant-baseline:text-before-edge;text-decoration:none solid rgb(0, 0, 0);">Probe</text></g></g></g><g><g><g><text x="338.0208435058594" y="182.73959350585938" style="white-space:pre;stroke:none;fill:rgb(0,0,0);fill-opacity:1;font-size:15px;font-family:Arial, Helvetica, sans-serif;font-weight:400;font-style:normal;dominant-baseline:text-before-edge;text-decoration:none solid rgb(0, 0, 0);">Austronaut in rocket</text></g></g></g><g><g><g><g><g><g><g transform="matrix(1,0,0,1,364.9062805175781,213.7125)"><path transform="matrix(0.0119,0,0,-0.0119,0,0)" d="M368 365C371 403 376 435 384 476C373 481 369 482 364 482C333 482 302 458 266 407C227 351 188 291 172 256L204 408C208 425 210 438 210 450C210 470 202 482 187 482C166 482 128 461 54 408L26 388L33 368L65 389C93 407 104 412 113 412C123 412 130 403 130 390C130 332 87 126 47 -2L57 -9C72 -4 88 -1 111 4L124 6L150 126C168 209 191 262 235 319C269 363 296 384 318 384C333 384 343 379 354 365Z" stroke="rgb(0,0,0)" stroke-opacity="1" stroke-width="8" fill="rgb(0,0,0)" fill-opacity="1"></path></g></g><g><g><g><g><g transform="matrix(1,0,0,1,369.8854064941406,216.4758435058594)"><path transform="matrix(0.00833,0,0,-0.00833,0,0)" d="M368 365C371 403 376 435 384 476C373 481 369 482 364 482C333 482 302 458 266 407C227 351 188 291 172 256L204 408C208 425 210 438 210 450C210 470 202 482 187 482C166 482 128 461 54 408L26 388L33 368L65 389C93 407 104 412 113 412C123 412 130 403 130 390C130 332 87 126 47 -2L57 -9C72 -4 88 -1 111 4L124 6L150 126C168 209 191 262 235 319C269 363 296 384 318 384C333 384 343 379 354 365ZM405 152C405 46 450 -11 533 -11C588 -11 648 15 693 57C755 116 799 230 799 331C799 425 749 482 666 482C562 482 405 382 405 152ZM629 444C690 444 723 399 723 315C723 219 692 113 648 60C630 39 604 27 573 27C515 27 481 72 481 151C481 264 520 387 569 427C582 438 605 444 629 444ZM1173 330L1196 330C1204 395 1211 432 1220 458C1196 473 1161 482 1124 482C1079 483 1006 463 949 400C895 352 856 241 856 136C856 40 898 -11 978 -11C1032 -11 1080 9 1135 54L1185 95L1177 115L1162 105C1090 57 1052 40 1017 40C961 40 932 80 932 159C932 267 967 371 1016 409C1037 425 1061 433 1092 433C1137 433 1173 414 1173 390ZM1477 722L1465 733C1413 707 1377 698 1305 691L1301 670L1349 670C1373 670 1383 663 1383 646C1383 638 1382 629 1381 622L1333 354C1319 279 1303 210 1251 1L1260 -9L1327 8L1350 132C1359 180 1383 225 1417 259C1486 59 1518 -9 1543 -9C1556 -9 1580 4 1624 35L1670 67L1662 86L1619 62C1605 54 1598 52 1590 52C1580 52 1573 58 1564 75C1529 139 1507 193 1468 316L1482 330C1543 391 1589 416 1639 416C1647 416 1658 414 1675 410L1692 473C1674 479 1656 482 1644 482C1578 482 1495 405 1370 230ZM2033 111L2009 94C1956 56 1908 36 1872 36C1825 36 1796 73 1796 133C1796 158 1799 185 1804 214C1821 218 1930 248 1955 259C2040 296 2079 342 2079 404C2079 451 2045 482 1995 482C1927 496 1817 423 1780 349C1750 299 1720 180 1720 113C1720 35 1764 -11 1836 -11C1893 -11 1949 17 2041 92ZM1818 274C1835 343 1855 386 1884 412C1902 428 1933 440 1957 440C1986 440 2005 420 2005 388C2005 344 1970 297 1918 272C1890 258 1854 247 1809 237ZM2218 390L2162 107C2161 99 2149 61 2149 31C2149 6 2160 -9 2179 -9C2214 -9 2249 11 2327 74L2358 99L2348 117L2303 86C2274 66 2254 56 2243 56C2234 56 2229 64 2229 76C2229 102 2243 183 2272 328L2285 390L2392 390L2403 440C2365 436 2331 434 2293 434C2309 528 2320 577 2338 631L2327 646C2307 634 2280 622 2249 610L2224 440C2180 419 2154 408 2136 403L2134 390Z" stroke="rgb(0,0,0)" stroke-opacity="1" stroke-width="8" fill="rgb(0,0,0)" fill-opacity="1"></path></g></g></g></g></g><g><g transform="matrix(1,0,0,1,390.7916564941406,213.7125)"><path transform="matrix(0.0119,0,0,-0.0119,0,0)" d="" stroke="rgb(0,0,0)" stroke-opacity="1" stroke-width="8" fill="rgb(0,0,0)" fill-opacity="1"></path></g></g><g><g transform="matrix(1,0,0,1,397.3229064941406,213.7125)"><path transform="matrix(0.0119,0,0,-0.0119,0,0)" d="M604 347L604 406L65 406L65 347ZM604 134L604 193L65 193L65 134Z" stroke="rgb(0,0,0)" stroke-opacity="1" stroke-width="8" fill="rgb(0,0,0)" fill-opacity="1"></path></g></g><g><g transform="matrix(1,0,0,1,408.8333435058594,213.7125)"><path transform="matrix(0.0119,0,0,-0.0119,0,0)" d="M667 -3L667 27L615 30C560 33 550 44 550 96L550 700L309 598L316 548L466 614L466 96C466 44 455 33 401 30L345 27L345 -3C499 0 499 0 510 0C541 0 651 -3 667 -3ZM872 111C842 111 815 83 815 53C815 23 842 -5 871 -5C903 -5 931 22 931 53C931 83 903 111 872 111ZM1013 23L1013 -3C1200 -3 1200 0 1236 0C1272 0 1272 -3 1465 -3L1465 82C1350 77 1304 81 1119 77L1301 270C1398 373 1428 428 1428 503C1428 618 1350 689 1223 689C1151 689 1102 669 1053 619L1036 483L1065 483L1078 529C1094 587 1130 612 1197 612C1283 612 1338 558 1338 473C1338 398 1296 324 1183 204ZM2016 204L1987 77C1983 60 1981 42 1981 26C1981 4 1990 -9 2005 -9C2028 -9 2069 17 2151 85L2144 106C2120 86 2091 59 2069 59C2060 59 2054 68 2054 82C2054 87 2054 90 2055 93L2147 472L2137 481L2104 463C2063 478 2046 482 2019 482C1991 482 1971 477 1944 464C1882 433 1849 403 1824 354C1780 265 1749 145 1749 67C1749 23 1764 -11 1783 -11C1820 -11 1900 41 2016 204ZM2064 414C2042 305 2023 253 1989 201C1932 117 1871 59 1839 59C1827 59 1821 72 1821 99C1821 163 1849 280 1884 360C1908 415 1931 433 1979 433C2002 433 2020 429 2064 414Z" stroke="rgb(0,0,0)" stroke-opacity="1" stroke-width="8" fill="rgb(0,0,0)" fill-opacity="1"></path></g></g></g></g></g></g></g><g><g><g><g><g><g><g transform="matrix(1,0,0,1,219.77084350585938,76.30625)"><path transform="matrix(0.0119,0,0,-0.0119,0,0)" d="M730 103L704 86C675 67 653 56 643 56C636 56 630 65 630 76C630 86 632 95 637 116L712 413C716 430 719 446 719 454C719 471 709 482 693 482C664 482 626 464 565 421C502 376 467 341 418 272L448 409C452 429 455 444 455 451C455 470 445 482 429 482C399 482 353 460 298 418C254 384 234 363 169 275L202 408C206 424 208 439 208 451C208 470 199 482 185 482C164 482 126 461 52 408L24 388L31 368C68 391 103 414 110 414C121 414 128 404 128 389C128 338 87 145 46 2L49 -9L117 6L139 108C163 219 190 278 245 338C287 384 332 414 360 414C367 414 371 406 371 393C371 358 349 244 308 69L292 2L297 -9L366 6L387 113C403 194 437 269 481 318C536 379 586 414 618 414C626 414 631 405 631 389C631 365 628 351 606 264C566 105 550 84 550 31C550 6 561 -9 580 -9C606 -9 642 12 740 85Z" stroke="rgb(0,0,0)" stroke-opacity="1" stroke-width="8" fill="rgb(0,0,0)" fill-opacity="1"></path></g></g><g><g><g><g><g transform="matrix(1,0,0,1,229.37503051757812,79.06959350585937)"><path transform="matrix(0.00833,0,0,-0.00833,0,0)" d="M176 -11C232 -11 347 62 390 125C431 186 465 296 465 371C465 438 442 482 406 482C364 482 311 456 259 409C218 374 198 348 162 289L186 408C189 425 191 440 191 452C191 471 183 482 169 482C148 482 110 461 36 408L8 388L15 368L47 389C75 407 86 412 95 412C105 412 112 403 112 389C112 381 110 361 108 351L50 8C40 -52 21 -143 1 -233L-7 -270L0 -276C21 -269 41 -264 73 -259L115 3C136 -4 158 -11 176 -11ZM143 165C165 293 272 424 355 424C381 424 393 402 393 356C393 275 353 156 300 80C280 51 248 36 207 36C176 36 151 43 125 59ZM867 365C870 403 875 435 883 476C872 481 868 482 863 482C832 482 801 458 765 407C726 351 687 291 671 256L703 408C707 425 709 438 709 450C709 470 701 482 686 482C665 482 627 461 553 408L525 388L532 368L564 389C592 407 603 412 612 412C622 412 629 403 629 390C629 332 586 126 546 -2L556 -9C571 -4 587 -1 610 4L623 6L649 126C667 209 690 262 734 319C768 363 795 384 817 384C832 384 842 379 853 365ZM904 152C904 46 949 -11 1032 -11C1087 -11 1147 15 1192 57C1254 116 1298 230 1298 331C1298 425 1248 482 1165 482C1061 482 904 382 904 152ZM1128 444C1189 444 1222 399 1222 315C1222 219 1191 113 1147 60C1129 39 1103 27 1072 27C1014 27 980 72 980 151C980 264 1019 387 1068 427C1081 438 1104 444 1128 444ZM1565 722L1553 733C1501 707 1465 698 1393 691L1389 670L1437 670C1461 670 1471 663 1471 646C1471 639 1470 628 1469 622L1368 71C1367 68 1367 64 1367 61C1367 22 1415 -11 1470 -11C1507 -11 1558 8 1601 39C1697 107 1763 244 1763 376C1763 414 1754 453 1742 468C1735 477 1722 482 1707 482C1683 482 1653 474 1625 460C1574 433 1541 403 1479 324ZM1652 424C1678 424 1691 401 1691 352C1691 288 1670 202 1640 137C1607 68 1567 36 1513 36C1467 36 1442 59 1442 101C1442 135 1457 276 1538 361C1571 395 1623 424 1652 424ZM2120 111L2096 94C2043 56 1995 36 1959 36C1912 36 1883 73 1883 133C1883 158 1886 185 1891 214C1908 218 2017 248 2042 259C2127 296 2166 342 2166 404C2166 451 2132 482 2082 482C2014 496 1904 423 1867 349C1837 299 1807 180 1807 113C1807 35 1851 -11 1923 -11C1980 -11 2036 17 2128 92ZM1905 274C1922 343 1942 386 1971 412C1989 428 2020 440 2044 440C2073 440 2092 420 2092 388C2092 344 2057 297 2005 272C1977 258 1941 247 1896 237Z" stroke="rgb(0,0,0)" stroke-opacity="1" stroke-width="8" fill="rgb(0,0,0)" fill-opacity="1"></path></g></g></g></g></g><g><g transform="matrix(1,0,0,1,248.23959350585938,76.30625)"><path transform="matrix(0.0119,0,0,-0.0119,0,0)" d="" stroke="rgb(0,0,0)" stroke-opacity="1" stroke-width="8" fill="rgb(0,0,0)" fill-opacity="1"></path></g></g><g><g transform="matrix(1,0,0,1,254.77084350585938,76.30625)"><path transform="matrix(0.0119,0,0,-0.0119,0,0)" d="M912 5L912 64L469 271L912 476L912 535L367 281L367 260ZM599 5L599 64L157 271L599 476L599 535L55 281L55 260Z" stroke="rgb(0,0,0)" stroke-opacity="1" stroke-width="8" fill="rgb(0,0,0)" fill-opacity="1"></path></g></g><g><g transform="matrix(1,0,0,1,269.8125305175781,76.30625)"><path transform="matrix(0.0119,0,0,-0.0119,0,0)" d="M1186 664L1199 695C1171 699 1024 701 1022 692L937 536L691 114L541 692C518 686 395 690 374 692L371 664L397 662C449 658 467 648 467 622C467 616 321 100 319 93C303 41 288 28 233 23L230 -3L269 -2C303 -1 328 0 342 0C356 0 382 -1 417 -2L452 -3L455 25L417 28C385 30 368 40 368 55C368 65 370 78 375 96L499 560L648 -18L671 -18L728 86L967 500L1019 587L982 67C978 39 966 32 915 28L884 25L881 -3L928 -2C970 -1 1000 0 1015 0C1031 0 1061 -1 1102 -2L1148 -3L1151 25L1114 28C1078 31 1060 42 1060 63L1061 100L1102 631C1104 650 1119 660 1148 662Z" stroke="rgb(0,0,0)" stroke-opacity="1" stroke-width="8" fill="rgb(0,0,0)" fill-opacity="1"></path></g></g><g><g><g><g><g transform="matrix(1,0,0,1,284.4687805175781,79.06959350585937)"><path transform="matrix(0.00833,0,0,-0.00833,0,0)" d="M543 227C543 337 459 353 377 365C434 385 459 397 490 425C536 464 559 511 559 562C559 644 501 692 401 692C399 692 389 692 374 691L311 690C299 689 263 689 251 689C232 689 201 690 152 691L100 692L97 664L150 662C174 661 185 653 185 635C185 621 181 589 176 559L89 55C85 37 73 30 31 23L26 -3L63 -2C90 0 105 0 117 0C128 0 154 -1 180 -2L217 -3L237 -4C256 -5 269 -6 277 -6C392 -6 543 87 543 227ZM166 41L217 340L302 340C405 340 455 298 455 211C455 108 382 34 282 34C228 34 207 38 166 41ZM352 655C433 655 473 619 473 544C473 439 399 376 275 376L223 376L272 650C288 650 329 655 352 655ZM831 385L873 613C880 652 887 658 924 661L966 664L969 692L945 692L855 689C839 689 821 689 778 690L714 692L711 664L758 662C782 661 793 653 793 635C793 621 789 590 784 559L710 125C693 33 692 32 652 28L611 25L607 -3L649 -2C697 -1 720 0 739 0L836 -3L862 -3L865 25L816 28C789 30 780 37 780 58C780 67 781 74 784 93L826 340L887 341C949 342 991 343 1010 343C1029 343 1070 342 1133 341L1194 340L1154 125C1145 76 1138 48 1133 42C1129 34 1118 30 1096 28L1046 25L1042 -3L1098 -2C1142 -1 1172 0 1183 0C1199 0 1230 -1 1273 -2L1315 -3L1318 25L1260 28C1234 29 1224 37 1224 58C1224 67 1225 76 1228 93L1320 613C1327 652 1333 657 1371 661L1407 664L1410 692L1394 692L1303 689C1288 689 1267 689 1223 690L1160 692L1157 664L1205 662C1229 661 1240 653 1240 635C1240 621 1236 589 1231 559L1201 385Z" stroke="rgb(0,0,0)" stroke-opacity="1" stroke-width="8" fill="rgb(0,0,0)" fill-opacity="1"></path></g></g></g></g></g></g></g></g></g></g><g><g><g><g><g><g><g transform="matrix(1,0,0,1,126.19790649414062,213.9625)"><path transform="matrix(0.0119,0,0,-0.0119,0,0)" d="M368 365C371 403 376 435 384 476C373 481 369 482 364 482C333 482 302 458 266 407C227 351 188 291 172 256L204 408C208 425 210 438 210 450C210 470 202 482 187 482C166 482 128 461 54 408L26 388L33 368L65 389C93 407 104 412 113 412C123 412 130 403 130 390C130 332 87 126 47 -2L57 -9C72 -4 88 -1 111 4L124 6L150 126C168 209 191 262 235 319C269 363 296 384 318 384C333 384 343 379 354 365Z" stroke="rgb(0,0,0)" stroke-opacity="1" stroke-width="8" fill="rgb(0,0,0)" fill-opacity="1"></path></g></g><g><g><g><g><g transform="matrix(1,0,0,1,131.17709350585938,216.7258435058594)"><path transform="matrix(0.00833,0,0,-0.00833,0,0)" d="M543 227C543 337 459 353 377 365C434 385 459 397 490 425C536 464 559 511 559 562C559 644 501 692 401 692C399 692 389 692 374 691L311 690C299 689 263 689 251 689C232 689 201 690 152 691L100 692L97 664L150 662C174 661 185 653 185 635C185 621 181 589 176 559L89 55C85 37 73 30 31 23L26 -3L63 -2C90 0 105 0 117 0C128 0 154 -1 180 -2L217 -3L237 -4C256 -5 269 -6 277 -6C392 -6 543 87 543 227ZM166 41L217 340L302 340C405 340 455 298 455 211C455 108 382 34 282 34C228 34 207 38 166 41ZM352 655C433 655 473 619 473 544C473 439 399 376 275 376L223 376L272 650C288 650 329 655 352 655ZM831 385L873 613C880 652 887 658 924 661L966 664L969 692L945 692L855 689C839 689 821 689 778 690L714 692L711 664L758 662C782 661 793 653 793 635C793 621 789 590 784 559L710 125C693 33 692 32 652 28L611 25L607 -3L649 -2C697 -1 720 0 739 0L836 -3L862 -3L865 25L816 28C789 30 780 37 780 58C780 67 781 74 784 93L826 340L887 341C949 342 991 343 1010 343C1029 343 1070 342 1133 341L1194 340L1154 125C1145 76 1138 48 1133 42C1129 34 1118 30 1096 28L1046 25L1042 -3L1098 -2C1142 -1 1172 0 1183 0C1199 0 1230 -1 1273 -2L1315 -3L1318 25L1260 28C1234 29 1224 37 1224 58C1224 67 1225 76 1228 93L1320 613C1327 652 1333 657 1371 661L1407 664L1410 692L1394 692L1303 689C1288 689 1267 689 1223 690L1160 692L1157 664L1205 662C1229 661 1240 653 1240 635C1240 621 1236 589 1231 559L1201 385Z" stroke="rgb(0,0,0)" stroke-opacity="1" stroke-width="8" fill="rgb(0,0,0)" fill-opacity="1"></path></g></g></g></g></g><g><g transform="matrix(1,0,0,1,143.43753051757812,213.9625)"><path transform="matrix(0.0119,0,0,-0.0119,0,0)" d="" stroke="rgb(0,0,0)" stroke-opacity="1" stroke-width="8" fill="rgb(0,0,0)" fill-opacity="1"></path></g></g><g><g transform="matrix(1,0,0,1,149.96878051757812,213.9625)"><path transform="matrix(0.0119,0,0,-0.0119,0,0)" d="M604 347L604 406L65 406L65 347ZM604 134L604 193L65 193L65 134Z" stroke="rgb(0,0,0)" stroke-opacity="1" stroke-width="8" fill="rgb(0,0,0)" fill-opacity="1"></path></g></g><g><g transform="matrix(1,0,0,1,161.47915649414062,213.9625)"><path transform="matrix(0.0119,0,0,-0.0119,0,0)" d="M520 204L491 77C487 60 485 42 485 26C485 4 494 -9 509 -9C532 -9 573 17 655 85L648 106C624 86 595 59 573 59C564 59 558 68 558 82C558 87 558 90 559 93L651 472L641 481L608 463C567 478 550 482 523 482C495 482 475 477 448 464C386 433 353 403 328 354C284 265 253 145 253 67C253 23 268 -11 287 -11C324 -11 404 41 520 204ZM568 414C546 305 527 253 493 201C436 117 375 59 343 59C331 59 325 72 325 99C325 163 353 280 388 360C412 415 435 433 483 433C506 433 524 429 568 414Z" stroke="rgb(0,0,0)" stroke-opacity="1" stroke-width="8" fill="rgb(0,0,0)" fill-opacity="1"></path></g></g></g></g></g></g></g><g><g><g><g><g><g><g transform="matrix(1,0,0,1,139.59378051757812,137.86875)"><path transform="matrix(0.0119,0,0,-0.0119,0,0)" d="M937 664L950 695C922 699 775 701 773 692L688 536L442 114L292 692C269 686 146 690 125 692L122 664L148 662C200 658 218 648 218 622C218 616 72 100 70 93C54 41 39 28 -16 23L-19 -3L20 -2C54 -1 79 0 93 0C107 0 133 -1 168 -2L203 -3L206 25L168 28C136 30 119 40 119 55C119 65 121 78 126 96L250 560L399 -18L422 -18L479 86L718 500L770 587L733 67C729 39 717 32 666 28L635 25L632 -3L679 -2C721 -1 751 0 766 0C782 0 812 -1 853 -2L899 -3L902 25L865 28C829 31 811 42 811 63L812 100L853 631C855 650 870 660 899 662Z" stroke="rgb(255,255,255)" stroke-opacity="1" stroke-width="8" fill="rgb(255,255,255)" fill-opacity="1"></path></g></g><g><g><g><g><g transform="matrix(1,0,0,1,151.29165649414062,140.6320935058594)"><path transform="matrix(0.00833,0,0,-0.00833,0,0)" d="M543 227C543 337 459 353 377 365C434 385 459 397 490 425C536 464 559 511 559 562C559 644 501 692 401 692C399 692 389 692 374 691L311 690C299 689 263 689 251 689C232 689 201 690 152 691L100 692L97 664L150 662C174 661 185 653 185 635C185 621 181 589 176 559L89 55C85 37 73 30 31 23L26 -3L63 -2C90 0 105 0 117 0C128 0 154 -1 180 -2L217 -3L237 -4C256 -5 269 -6 277 -6C392 -6 543 87 543 227ZM166 41L217 340L302 340C405 340 455 298 455 211C455 108 382 34 282 34C228 34 207 38 166 41ZM352 655C433 655 473 619 473 544C473 439 399 376 275 376L223 376L272 650C288 650 329 655 352 655ZM831 385L873 613C880 652 887 658 924 661L966 664L969 692L945 692L855 689C839 689 821 689 778 690L714 692L711 664L758 662C782 661 793 653 793 635C793 621 789 590 784 559L710 125C693 33 692 32 652 28L611 25L607 -3L649 -2C697 -1 720 0 739 0L836 -3L862 -3L865 25L816 28C789 30 780 37 780 58C780 67 781 74 784 93L826 340L887 341C949 342 991 343 1010 343C1029 343 1070 342 1133 341L1194 340L1154 125C1145 76 1138 48 1133 42C1129 34 1118 30 1096 28L1046 25L1042 -3L1098 -2C1142 -1 1172 0 1183 0C1199 0 1230 -1 1273 -2L1315 -3L1318 25L1260 28C1234 29 1224 37 1224 58C1224 67 1225 76 1228 93L1320 613C1327 652 1333 657 1371 661L1407 664L1410 692L1394 692L1303 689C1288 689 1267 689 1223 690L1160 692L1157 664L1205 662C1229 661 1240 653 1240 635C1240 621 1236 589 1231 559L1201 385Z" stroke="rgb(255,255,255)" stroke-opacity="1" stroke-width="8" fill="rgb(255,255,255)" fill-opacity="1"></path></g></g></g></g></g><g><g transform="matrix(1,0,0,1,163.55209350585938,137.86875)"><path transform="matrix(0.0119,0,0,-0.0119,0,0)" d="" stroke="rgb(255,255,255)" stroke-opacity="1" stroke-width="8" fill="rgb(255,255,255)" fill-opacity="1"></path></g></g></g></g></g></g></g><g><g><g><g><g><g><g transform="matrix(1,0,0,1,372.0208435058594,49.07292175292969)"><path transform="matrix(0.017,0,0,-0.017,0,0)" d="M63 278L63 281C118 423 114 402 279 408C237 307 190 180 187 71C183 -74 360 -4 411 59L411 65L397 75L397 74C374 56 347 33 318 33C198 33 313 370 326 412C371 413 431 411 476 420L476 463L108 463C81 448 56 310 48 278Z" stroke="rgb(0,0,0)" stroke-opacity="1" stroke-width="8" fill="rgb(0,0,0)" fill-opacity="1"></path></g></g></g></g></g></g></g><g><g><g><g><g><g><g transform="matrix(1,0,0,1,523.8437805175781,153.36875)"><path transform="matrix(0.0119,0,0,-0.0119,0,0)" d="M368 365C371 403 376 435 384 476C373 481 369 482 364 482C333 482 302 458 266 407C227 351 188 291 172 256L204 408C208 425 210 438 210 450C210 470 202 482 187 482C166 482 128 461 54 408L26 388L33 368L65 389C93 407 104 412 113 412C123 412 130 403 130 390C130 332 87 126 47 -2L57 -9C72 -4 88 -1 111 4L124 6L150 126C168 209 191 262 235 319C269 363 296 384 318 384C333 384 343 379 354 365Z" stroke="rgb(0,0,0)" stroke-opacity="1" stroke-width="8" fill="rgb(0,0,0)" fill-opacity="1"></path></g></g><g><g><g></g></g></g><g><g><g transform="matrix(1,0,0,1,536.0625305175781,153.36875)"><path transform="matrix(0.0119,0,0,-0.0119,0,0)" d="M949 272L743 486L711 452L836 300L65 300L65 241L836 241L711 89L743 55Z" stroke="rgb(0,0,0)" stroke-opacity="1" stroke-width="8" fill="rgb(0,0,0)" fill-opacity="1"></path></g></g></g><g><g transform="matrix(1,0,0,1,550.4895935058594,153.36875)"><path transform="matrix(0.0119,0,0,-0.0119,0,0)" d="M843 284C843 380 792 461 687 461C600 461 516 378 463 315C419 387 334 463 245 463C129 463 55 352 55 244C55 148 109 66 213 66C296 66 389 152 436 216C485 143 561 65 655 65C771 65 843 179 843 284ZM783 236C783 166 748 108 673 108C594 108 522 226 481 284C513 332 597 409 656 409C740 409 783 307 783 236ZM418 245C387 198 301 122 243 122C159 122 117 224 117 296C117 366 153 424 229 424C300 424 387 304 418 245Z" stroke="rgb(0,0,0)" stroke-opacity="1" stroke-width="8" fill="rgb(0,0,0)" fill-opacity="1"></path></g></g></g></g></g></g></g><g><g><g><g><g><g><g transform="matrix(1,0,0,1,517.0000305175781,49.07292175292969)"><path transform="matrix(0.017,0,0,-0.017,0,0)" d="M125 390L69 107C68 99 56 61 56 31C56 6 67 -9 86 -9C121 -9 156 11 234 74L265 99L255 117L210 86C181 66 161 56 150 56C141 56 136 64 136 76C136 102 150 183 179 328L192 390L299 390L310 440C272 436 238 434 200 434C216 528 227 577 245 631L234 646C214 634 187 622 156 610L131 440C87 419 61 408 43 403L41 390Z" stroke="rgb(0,0,0)" stroke-opacity="1" stroke-width="8" fill="rgb(0,0,0)" fill-opacity="1"></path></g></g></g></g></g></g></g><g><g><g><text x="220.77084350585938" y="85.07293701171875" style="white-space:pre;stroke:none;fill:rgb(0,0,0);fill-opacity:1;font-size:10.5px;font-family:Arial, Helvetica, sans-serif;font-weight:400;font-style:normal;dominant-baseline:text-before-edge;text-decoration:none solid rgb(0, 0, 0);">a</text></g><g><g><g><g><g transform="matrix(1,0,0,1,226.61459350585938,94.30625)"><path transform="matrix(0.0119,0,0,-0.0119,0,0)" d="" stroke="rgb(0,0,0)" stroke-opacity="1" stroke-width="8" fill="rgb(0,0,0)" fill-opacity="1"></path></g></g><g><g><g transform="matrix(1,0,0,1,231.95834350585938,94.30625)"><path transform="matrix(0.0119,0,0,-0.0119,0,0)" d="M949 241L949 300L179 300L304 452L272 486L65 269L272 55L304 89L179 241Z" stroke="rgb(0,0,0)" stroke-opacity="1" stroke-width="8" fill="rgb(0,0,0)" fill-opacity="1"></path></g></g></g><g><g transform="matrix(1,0,0,1,246.38540649414062,94.30625)"><path transform="matrix(0.0119,0,0,-0.0119,0,0)" d="M368 365C371 403 376 435 384 476C373 481 369 482 364 482C333 482 302 458 266 407C227 351 188 291 172 256L204 408C208 425 210 438 210 450C210 470 202 482 187 482C166 482 128 461 54 408L26 388L33 368L65 389C93 407 104 412 113 412C123 412 130 403 130 390C130 332 87 126 47 -2L57 -9C72 -4 88 -1 111 4L124 6L150 126C168 209 191 262 235 319C269 363 296 384 318 384C333 384 343 379 354 365Z" stroke="rgb(0,0,0)" stroke-opacity="1" stroke-width="8" fill="rgb(0,0,0)" fill-opacity="1"></path></g></g><g><g><g><g><g transform="matrix(1,0,0,1,251.36459350585938,97.06959350585937)"><path transform="matrix(0.00833,0,0,-0.00833,0,0)" d="M176 -11C232 -11 347 62 390 125C431 186 465 296 465 371C465 438 442 482 406 482C364 482 311 456 259 409C218 374 198 348 162 289L186 408C189 425 191 440 191 452C191 471 183 482 169 482C148 482 110 461 36 408L8 388L15 368L47 389C75 407 86 412 95 412C105 412 112 403 112 389C112 381 110 361 108 351L50 8C40 -52 21 -143 1 -233L-7 -270L0 -276C21 -269 41 -264 73 -259L115 3C136 -4 158 -11 176 -11ZM143 165C165 293 272 424 355 424C381 424 393 402 393 356C393 275 353 156 300 80C280 51 248 36 207 36C176 36 151 43 125 59ZM867 365C870 403 875 435 883 476C872 481 868 482 863 482C832 482 801 458 765 407C726 351 687 291 671 256L703 408C707 425 709 438 709 450C709 470 701 482 686 482C665 482 627 461 553 408L525 388L532 368L564 389C592 407 603 412 612 412C622 412 629 403 629 390C629 332 586 126 546 -2L556 -9C571 -4 587 -1 610 4L623 6L649 126C667 209 690 262 734 319C768 363 795 384 817 384C832 384 842 379 853 365ZM904 152C904 46 949 -11 1032 -11C1087 -11 1147 15 1192 57C1254 116 1298 230 1298 331C1298 425 1248 482 1165 482C1061 482 904 382 904 152ZM1128 444C1189 444 1222 399 1222 315C1222 219 1191 113 1147 60C1129 39 1103 27 1072 27C1014 27 980 72 980 151C980 264 1019 387 1068 427C1081 438 1104 444 1128 444ZM1565 722L1553 733C1501 707 1465 698 1393 691L1389 670L1437 670C1461 670 1471 663 1471 646C1471 639 1470 628 1469 622L1368 71C1367 68 1367 64 1367 61C1367 22 1415 -11 1470 -11C1507 -11 1558 8 1601 39C1697 107 1763 244 1763 376C1763 414 1754 453 1742 468C1735 477 1722 482 1707 482C1683 482 1653 474 1625 460C1574 433 1541 403 1479 324ZM1652 424C1678 424 1691 401 1691 352C1691 288 1670 202 1640 137C1607 68 1567 36 1513 36C1467 36 1442 59 1442 101C1442 135 1457 276 1538 361C1571 395 1623 424 1652 424ZM2120 111L2096 94C2043 56 1995 36 1959 36C1912 36 1883 73 1883 133C1883 158 1886 185 1891 214C1908 218 2017 248 2042 259C2127 296 2166 342 2166 404C2166 451 2132 482 2082 482C2014 496 1904 423 1867 349C1837 299 1807 180 1807 113C1807 35 1851 -11 1923 -11C1980 -11 2036 17 2128 92ZM1905 274C1922 343 1942 386 1971 412C1989 428 2020 440 2044 440C2073 440 2092 420 2092 388C2092 344 2057 297 2005 272C1977 258 1941 247 1896 237Z" stroke="rgb(0,0,0)" stroke-opacity="1" stroke-width="8" fill="rgb(0,0,0)" fill-opacity="1"></path></g></g></g></g></g></g></g></g></g></g><g><g><g><g><g><g><g transform="matrix(1,0,0,1,365.2708435058594,229.05625)"><path transform="matrix(0.0119,0,0,-0.0119,0,0)" d="M730 103L704 86C675 67 653 56 643 56C636 56 630 65 630 76C630 86 632 95 637 116L712 413C716 430 719 446 719 454C719 471 709 482 693 482C664 482 626 464 565 421C502 376 467 341 418 272L448 409C452 429 455 444 455 451C455 470 445 482 429 482C399 482 353 460 298 418C254 384 234 363 169 275L202 408C206 424 208 439 208 451C208 470 199 482 185 482C164 482 126 461 52 408L24 388L31 368C68 391 103 414 110 414C121 414 128 404 128 389C128 338 87 145 46 2L49 -9L117 6L139 108C163 219 190 278 245 338C287 384 332 414 360 414C367 414 371 406 371 393C371 358 349 244 308 69L292 2L297 -9L366 6L387 113C403 194 437 269 481 318C536 379 586 414 618 414C626 414 631 405 631 389C631 365 628 351 606 264C566 105 550 84 550 31C550 6 561 -9 580 -9C606 -9 642 12 740 85Z" stroke="rgb(0,0,0)" stroke-opacity="1" stroke-width="8" fill="rgb(0,0,0)" fill-opacity="1"></path></g></g><g><g><g><g><g transform="matrix(1,0,0,1,374.8750305175781,231.8195935058594)"><path transform="matrix(0.00833,0,0,-0.00833,0,0)" d="M368 365C371 403 376 435 384 476C373 481 369 482 364 482C333 482 302 458 266 407C227 351 188 291 172 256L204 408C208 425 210 438 210 450C210 470 202 482 187 482C166 482 128 461 54 408L26 388L33 368L65 389C93 407 104 412 113 412C123 412 130 403 130 390C130 332 87 126 47 -2L57 -9C72 -4 88 -1 111 4L124 6L150 126C168 209 191 262 235 319C269 363 296 384 318 384C333 384 343 379 354 365ZM405 152C405 46 450 -11 533 -11C588 -11 648 15 693 57C755 116 799 230 799 331C799 425 749 482 666 482C562 482 405 382 405 152ZM629 444C690 444 723 399 723 315C723 219 692 113 648 60C630 39 604 27 573 27C515 27 481 72 481 151C481 264 520 387 569 427C582 438 605 444 629 444ZM1173 330L1196 330C1204 395 1211 432 1220 458C1196 473 1161 482 1124 482C1079 483 1006 463 949 400C895 352 856 241 856 136C856 40 898 -11 978 -11C1032 -11 1080 9 1135 54L1185 95L1177 115L1162 105C1090 57 1052 40 1017 40C961 40 932 80 932 159C932 267 967 371 1016 409C1037 425 1061 433 1092 433C1137 433 1173 414 1173 390ZM1477 722L1465 733C1413 707 1377 698 1305 691L1301 670L1349 670C1373 670 1383 663 1383 646C1383 638 1382 629 1381 622L1333 354C1319 279 1303 210 1251 1L1260 -9L1327 8L1350 132C1359 180 1383 225 1417 259C1486 59 1518 -9 1543 -9C1556 -9 1580 4 1624 35L1670 67L1662 86L1619 62C1605 54 1598 52 1590 52C1580 52 1573 58 1564 75C1529 139 1507 193 1468 316L1482 330C1543 391 1589 416 1639 416C1647 416 1658 414 1675 410L1692 473C1674 479 1656 482 1644 482C1578 482 1495 405 1370 230ZM2033 111L2009 94C1956 56 1908 36 1872 36C1825 36 1796 73 1796 133C1796 158 1799 185 1804 214C1821 218 1930 248 1955 259C2040 296 2079 342 2079 404C2079 451 2045 482 1995 482C1927 496 1817 423 1780 349C1750 299 1720 180 1720 113C1720 35 1764 -11 1836 -11C1893 -11 1949 17 2041 92ZM1818 274C1835 343 1855 386 1884 412C1902 428 1933 440 1957 440C1986 440 2005 420 2005 388C2005 344 1970 297 1918 272C1890 258 1854 247 1809 237ZM2218 390L2162 107C2161 99 2149 61 2149 31C2149 6 2160 -9 2179 -9C2214 -9 2249 11 2327 74L2358 99L2348 117L2303 86C2274 66 2254 56 2243 56C2234 56 2229 64 2229 76C2229 102 2243 183 2272 328L2285 390L2392 390L2403 440C2365 436 2331 434 2293 434C2309 528 2320 577 2338 631L2327 646C2307 634 2280 622 2249 610L2224 440C2180 419 2154 408 2136 403L2134 390Z" stroke="rgb(0,0,0)" stroke-opacity="1" stroke-width="8" fill="rgb(0,0,0)" fill-opacity="1"></path></g></g></g></g></g><g><g transform="matrix(1,0,0,1,395.7812805175781,229.05625)"><path transform="matrix(0.0119,0,0,-0.0119,0,0)" d="" stroke="rgb(0,0,0)" stroke-opacity="1" stroke-width="8" fill="rgb(0,0,0)" fill-opacity="1"></path></g></g><g><g transform="matrix(1,0,0,1,402.3125305175781,229.05625)"><path transform="matrix(0.0119,0,0,-0.0119,0,0)" d="M912 5L912 64L469 271L912 476L912 535L367 281L367 260ZM599 5L599 64L157 271L599 476L599 535L55 281L55 260Z" stroke="rgb(0,0,0)" stroke-opacity="1" stroke-width="8" fill="rgb(0,0,0)" fill-opacity="1"></path></g></g><g><g transform="matrix(1,0,0,1,417.3541564941406,229.05625)"><path transform="matrix(0.0119,0,0,-0.0119,0,0)" d="M1186 664L1199 695C1171 699 1024 701 1022 692L937 536L691 114L541 692C518 686 395 690 374 692L371 664L397 662C449 658 467 648 467 622C467 616 321 100 319 93C303 41 288 28 233 23L230 -3L269 -2C303 -1 328 0 342 0C356 0 382 -1 417 -2L452 -3L455 25L417 28C385 30 368 40 368 55C368 65 370 78 375 96L499 560L648 -18L671 -18L728 86L967 500L1019 587L982 67C978 39 966 32 915 28L884 25L881 -3L928 -2C970 -1 1000 0 1015 0C1031 0 1061 -1 1102 -2L1148 -3L1151 25L1114 28C1078 31 1060 42 1060 63L1061 100L1102 631C1104 650 1119 660 1148 662Z" stroke="rgb(0,0,0)" stroke-opacity="1" stroke-width="8" fill="rgb(0,0,0)" fill-opacity="1"></path></g></g><g><g><g><g><g transform="matrix(1,0,0,1,432.0104064941406,231.8195935058594)"><path transform="matrix(0.00833,0,0,-0.00833,0,0)" d="M543 227C543 337 459 353 377 365C434 385 459 397 490 425C536 464 559 511 559 562C559 644 501 692 401 692C399 692 389 692 374 691L311 690C299 689 263 689 251 689C232 689 201 690 152 691L100 692L97 664L150 662C174 661 185 653 185 635C185 621 181 589 176 559L89 55C85 37 73 30 31 23L26 -3L63 -2C90 0 105 0 117 0C128 0 154 -1 180 -2L217 -3L237 -4C256 -5 269 -6 277 -6C392 -6 543 87 543 227ZM166 41L217 340L302 340C405 340 455 298 455 211C455 108 382 34 282 34C228 34 207 38 166 41ZM352 655C433 655 473 619 473 544C473 439 399 376 275 376L223 376L272 650C288 650 329 655 352 655ZM831 385L873 613C880 652 887 658 924 661L966 664L969 692L945 692L855 689C839 689 821 689 778 690L714 692L711 664L758 662C782 661 793 653 793 635C793 621 789 590 784 559L710 125C693 33 692 32 652 28L611 25L607 -3L649 -2C697 -1 720 0 739 0L836 -3L862 -3L865 25L816 28C789 30 780 37 780 58C780 67 781 74 784 93L826 340L887 341C949 342 991 343 1010 343C1029 343 1070 342 1133 341L1194 340L1154 125C1145 76 1138 48 1133 42C1129 34 1118 30 1096 28L1046 25L1042 -3L1098 -2C1142 -1 1172 0 1183 0C1199 0 1230 -1 1273 -2L1315 -3L1318 25L1260 28C1234 29 1224 37 1224 58C1224 67 1225 76 1228 93L1320 613C1327 652 1333 657 1371 661L1407 664L1410 692L1394 692L1303 689C1288 689 1267 689 1223 690L1160 692L1157 664L1205 662C1229 661 1240 653 1240 635C1240 621 1236 589 1231 559L1201 385Z" stroke="rgb(0,0,0)" stroke-opacity="1" stroke-width="8" fill="rgb(0,0,0)" fill-opacity="1"></path></g></g></g></g></g></g></g></g></g></g></svg>
</svg>
