<?xml version="1.0" encoding="UTF-8" standalone="no"?>
<svg
   xmlns:dc="http://purl.org/dc/elements/1.1/"
   xmlns:cc="http://creativecommons.org/ns#"
   xmlns:rdf="http://www.w3.org/1999/02/22-rdf-syntax-ns#"
   xmlns:svg="http://www.w3.org/2000/svg"
   xmlns="http://www.w3.org/2000/svg"
   xmlns:sodipodi="http://sodipodi.sourceforge.net/DTD/sodipodi-0.dtd"
   xmlns:inkscape="http://www.inkscape.org/namespaces/inkscape"
   x="0"
   y="0"
   width="200"
   height="78"
   style="fill:none"
   version="1.1"
   id="svg192"
   sodipodi:docname="selfinteraction.svg"
   inkscape:version="1.0.2-2 (e86c870879, 2021-01-15)">
  <metadata
     id="metadata198">
    <rdf:RDF>
      <cc:Work
         rdf:about="">
        <dc:format>image/svg+xml</dc:format>
        <dc:type
           rdf:resource="http://purl.org/dc/dcmitype/StillImage" />
        <dc:title></dc:title>
      </cc:Work>
    </rdf:RDF>
  </metadata>
  <defs
     id="defs196" />
  <sodipodi:namedview
     pagecolor="#ffffff"
     bordercolor="#666666"
     borderopacity="1"
     objecttolerance="10"
     gridtolerance="10"
     guidetolerance="10"
     inkscape:pageopacity="0"
     inkscape:pageshadow="2"
     inkscape:window-width="1800"
     inkscape:window-height="1106"
     id="namedview194"
     showgrid="false"
     inkscape:zoom="2.1495468"
     inkscape:cx="193.45163"
     inkscape:cy="72.650504"
     inkscape:window-x="-11"
     inkscape:window-y="-11"
     inkscape:window-maximized="1"
     inkscape:current-layer="svg192" />
  <svg
     class="role-diagram-draw-area"
     version="1.1"
     id="svg64"
     width="100%"
     height="100%">
    <g
       class="shapes-region"
       style="fill:none;stroke:#000000"
       id="g4">
      <g
         id="g2" />
    </g>
    <g
       id="g54">
      <g
         class="connection-group"
         id="g16">
        <g
           class="arrow-line"
           id="g14">
          <path
             class="connection real"
             stroke-dasharray="none"
             d="M 34,17.61 63.15,28.52"
             style="fill:none;fill-opacity:1;stroke:#000000;stroke-width:1"
             id="path6" />
          <g
             id="g12">
            <g
               stroke="#000"
               transform="rotate(-159.49,29.373449,7.6806597)"
               style="stroke:#000000;stroke-width:1"
               id="g10">
              <path
                 d="M 10.93,-3.29 Q 4.96,-0.45 0,0 4.96,0.45 10.93,3.29"
                 id="path8" />
            </g>
          </g>
        </g>
      </g>
      <g
         class="connection-group"
         id="g28">
        <g
           class="arrow-line"
           id="g26">
          <path
             class="connection real"
             stroke-dasharray="none"
             d="M 34,57.6 63.03,47.16"
             style="fill:none;fill-opacity:1;stroke:#000000;stroke-width:1"
             id="path18" />
          <g
             id="g24">
            <g
               stroke="#000"
               transform="rotate(160.22,22.691069,29.897518)"
               style="stroke:#000000;stroke-width:1"
               id="g22">
              <path
                 d="M 10.93,-3.29 Q 4.96,-0.45 0,0 4.96,0.45 10.93,3.29"
                 id="path20" />
            </g>
          </g>
        </g>
      </g>
      <g
         class="connection-group"
         id="g40">
        <g
           class="arrow-line"
           id="g38">
          <path
             class="connection real"
             stroke-dasharray="none"
             d="M 113.81,28.39 142,17.69"
             style="fill:none;fill-opacity:1;stroke:#000000;stroke-width:1"
             id="path30" />
          <g
             id="g36">
            <g
               stroke="#000"
               transform="rotate(159.22,64.838804,22.697508)"
               style="stroke:#000000;stroke-width:1"
               id="g34">
              <path
                 d="M 10.93,-3.29 Q 4.96,-0.45 0,0 4.96,0.45 10.93,3.29"
                 id="path32" />
            </g>
          </g>
        </g>
      </g>
      <g
         class="connection-group"
         id="g52">
        <g
           class="arrow-line"
           id="g50">
          <path
             class="connection real"
             stroke-dasharray="none"
             d="M 113.93,47.28 142,57.53"
             style="fill:none;fill-opacity:1;stroke:#000000;stroke-width:1"
             id="path42" />
          <g
             id="g48">
            <g
               stroke="#000"
               transform="rotate(-159.95,71.613541,15.421215)"
               style="stroke:#000000;stroke-width:1"
               id="g46">
              <path
                 d="M 10.93,-3.29 Q 4.96,-0.45 0,0 4.96,0.45 10.93,3.29"
                 id="path44" />
            </g>
          </g>
        </g>
      </g>
    </g>
    <g
       id="g60">
      <g
         id="g58">
        <circle
           cx="88.5"
           cy="38"
           r="27.060118"
           style="fill:#4a90e2;fill-opacity:0.5;stroke:#000000;stroke-width:2"
           id="circle56" />
      </g>
    </g>
    <g
       id="g62" />
  </svg>
  <svg
     width="660"
     height="76"
     style="font-family:Asana-Math, Asana"
     version="1.1"
     id="svg190">
    <g
       id="g76">
      <g
         id="g66" />
      <g
         id="g72">
        <g
           id="g70">
          <text
             x="85.03125"
             y="31.125"
             style="font-style:normal;font-weight:400;font-size:12px;font-family:Arial, Helvetica, sans-serif;text-decoration:none;text-decoration-line:none;text-decoration-style:solid;text-decoration-color:#000000;dominant-baseline:text-before-edge;white-space:pre;fill:#000000;fill-opacity:1;stroke:none"
             id="text68" />
        </g>
      </g>
      <g
         id="g74" />
    </g>
    <g
       id="g104">
      <g
         id="g102">
        <g
           id="g100">
          <g
             id="g98">
            <g
               id="g96">
              <g
                 id="g82">
                <g
                   transform="translate(8,17.333344)"
                   id="g80">
                  <path
                     transform="scale(0.017,-0.017)"
                     d="m 525,42 c -56,0 -61,83 -60,124 1,85 29,167 72,239 l 62,13 c 3,17 9,34 14,49 -154,-6 -313,-4 -468,-1 -65,1 -79,-77 -98,-126 -1,-8 12,-9 16,-12 v 4 c 43,63 67,73 142,73 h 23 C 188,266 161,129 98,-2 v -10 c 20,6 55,13 72,25 41,128 70,261 98,392 H 495 C 438,318 397,213 395,108 c 0,-49 15,-123 76,-123 41,0 97,40 127,66 v 15 h -12 v 1 C 568,56 548,42 525,42 Z"
                     stroke="#000000"
                     stroke-opacity="1"
                     stroke-width="8"
                     fill="#000000"
                     fill-opacity="1"
                     id="path78" />
                </g>
              </g>
              <g
                 id="g94">
                <g
                   id="g92">
                  <g
                     id="g90">
                    <g
                       id="g88">
                      <g
                         transform="translate(19.604187,21.004172)"
                         id="g86">
                        <path
                           transform="scale(0.0119,-0.0119)"
                           d="m 316,-3 c 72,0 121,11 173,37 156,80 252,231 252,397 0,98 -30,168 -91,211 -46,33 -131,51 -226,50 l -204,-3 h -10 c -9,0 -12,0 -113,3 l -3,-28 53,-2 c 24,-1 35,-9 35,-27 0,-14 -4,-46 -9,-76 L 86,55 C 81,31 56,29 33,23 l -5,-26 93,3 h 55 c 35,0 106,-3 140,-3 z m 68,658 C 566,655 649,579 649,415 649,225 549,41 329,41 c -44,0 -93,5 -161,15 0,12 1,19 4,37 l 96,557 c 23,0 81,5 116,5 z"
                           stroke="#000000"
                           stroke-opacity="1"
                           stroke-width="8"
                           fill="#000000"
                           fill-opacity="1"
                           id="path84" />
                      </g>
                    </g>
                  </g>
                </g>
              </g>
            </g>
          </g>
        </g>
      </g>
    </g>
    <g
       id="g132">
      <g
         id="g130">
        <g
           id="g128">
          <g
             id="g126">
            <g
               id="g124">
              <g
                 id="g110">
                <g
                   transform="translate(8,68.333344)"
                   id="g108">
                  <path
                     transform="scale(0.017,-0.017)"
                     d="m 525,42 c -56,0 -61,83 -60,124 1,85 29,167 72,239 l 62,13 c 3,17 9,34 14,49 -154,-6 -313,-4 -468,-1 -65,1 -79,-77 -98,-126 -1,-8 12,-9 16,-12 v 4 c 43,63 67,73 142,73 h 23 C 188,266 161,129 98,-2 v -10 c 20,6 55,13 72,25 41,128 70,261 98,392 H 495 C 438,318 397,213 395,108 c 0,-49 15,-123 76,-123 41,0 97,40 127,66 v 15 h -12 v 1 C 568,56 548,42 525,42 Z"
                     stroke="#000000"
                     stroke-opacity="1"
                     stroke-width="8"
                     fill="#000000"
                     fill-opacity="1"
                     id="path106" />
                </g>
              </g>
              <g
                 id="g122">
                <g
                   id="g120">
                  <g
                     id="g118">
                    <g
                       id="g116">
                      <g
                         transform="translate(19.604187,72.004172)"
                         id="g114">
                        <path
                           transform="scale(0.0119,-0.0119)"
                           d="m 316,-3 c 72,0 121,11 173,37 156,80 252,231 252,397 0,98 -30,168 -91,211 -46,33 -131,51 -226,50 l -204,-3 h -10 c -9,0 -12,0 -113,3 l -3,-28 53,-2 c 24,-1 35,-9 35,-27 0,-14 -4,-46 -9,-76 L 86,55 C 81,31 56,29 33,23 l -5,-26 93,3 h 55 c 35,0 106,-3 140,-3 z m 68,658 C 566,655 649,579 649,415 649,225 549,41 329,41 c -44,0 -93,5 -161,15 0,12 1,19 4,37 l 96,557 c 23,0 81,5 116,5 z"
                           stroke="#000000"
                           stroke-opacity="1"
                           stroke-width="8"
                           fill="#000000"
                           fill-opacity="1"
                           id="path112" />
                      </g>
                    </g>
                  </g>
                </g>
              </g>
            </g>
          </g>
        </g>
      </g>
    </g>
    <g
       id="g160">
      <g
         id="g158">
        <g
           id="g156">
          <g
             id="g154">
            <g
               id="g152">
              <g
                 id="g138">
                <g
                   transform="translate(146,17.333344)"
                   id="g136">
                  <path
                     transform="scale(0.017,-0.017)"
                     d="m 525,42 c -56,0 -61,83 -60,124 1,85 29,167 72,239 l 62,13 c 3,17 9,34 14,49 -154,-6 -313,-4 -468,-1 -65,1 -79,-77 -98,-126 -1,-8 12,-9 16,-12 v 4 c 43,63 67,73 142,73 h 23 C 188,266 161,129 98,-2 v -10 c 20,6 55,13 72,25 41,128 70,261 98,392 H 495 C 438,318 397,213 395,108 c 0,-49 15,-123 76,-123 41,0 97,40 127,66 v 15 h -12 v 1 C 568,56 548,42 525,42 Z"
                     stroke="#000000"
                     stroke-opacity="1"
                     stroke-width="8"
                     fill="#000000"
                     fill-opacity="1"
                     id="path134" />
                </g>
              </g>
              <g
                 id="g150">
                <g
                   id="g148">
                  <g
                     id="g146">
                    <g
                       id="g144">
                      <g
                         transform="translate(157.60419,21.004172)"
                         id="g142">
                        <path
                           transform="scale(0.0119,-0.0119)"
                           d="m 316,-3 c 72,0 121,11 173,37 156,80 252,231 252,397 0,98 -30,168 -91,211 -46,33 -131,51 -226,50 l -204,-3 h -10 c -9,0 -12,0 -113,3 l -3,-28 53,-2 c 24,-1 35,-9 35,-27 0,-14 -4,-46 -9,-76 L 86,55 C 81,31 56,29 33,23 l -5,-26 93,3 h 55 c 35,0 106,-3 140,-3 z m 68,658 C 566,655 649,579 649,415 649,225 549,41 329,41 c -44,0 -93,5 -161,15 0,12 1,19 4,37 l 96,557 c 23,0 81,5 116,5 z"
                           stroke="#000000"
                           stroke-opacity="1"
                           stroke-width="8"
                           fill="#000000"
                           fill-opacity="1"
                           id="path140" />
                      </g>
                    </g>
                  </g>
                </g>
              </g>
            </g>
          </g>
        </g>
      </g>
    </g>
    <g
       id="g188">
      <g
         id="g186">
        <g
           id="g184">
          <g
             id="g182">
            <g
               id="g180">
              <g
                 id="g166">
                <g
                   transform="translate(146,68.333344)"
                   id="g164">
                  <path
                     transform="scale(0.017,-0.017)"
                     d="m 525,42 c -56,0 -61,83 -60,124 1,85 29,167 72,239 l 62,13 c 3,17 9,34 14,49 -154,-6 -313,-4 -468,-1 -65,1 -79,-77 -98,-126 -1,-8 12,-9 16,-12 v 4 c 43,63 67,73 142,73 h 23 C 188,266 161,129 98,-2 v -10 c 20,6 55,13 72,25 41,128 70,261 98,392 H 495 C 438,318 397,213 395,108 c 0,-49 15,-123 76,-123 41,0 97,40 127,66 v 15 h -12 v 1 C 568,56 548,42 525,42 Z"
                     stroke="#000000"
                     stroke-opacity="1"
                     stroke-width="8"
                     fill="#000000"
                     fill-opacity="1"
                     id="path162" />
                </g>
              </g>
              <g
                 id="g178">
                <g
                   id="g176">
                  <g
                     id="g174">
                    <g
                       id="g172">
                      <g
                         transform="translate(157.60419,72.004172)"
                         id="g170">
                        <path
                           transform="scale(0.0119,-0.0119)"
                           d="m 316,-3 c 72,0 121,11 173,37 156,80 252,231 252,397 0,98 -30,168 -91,211 -46,33 -131,51 -226,50 l -204,-3 h -10 c -9,0 -12,0 -113,3 l -3,-28 53,-2 c 24,-1 35,-9 35,-27 0,-14 -4,-46 -9,-76 L 86,55 C 81,31 56,29 33,23 l -5,-26 93,3 h 55 c 35,0 106,-3 140,-3 z m 68,658 C 566,655 649,579 649,415 649,225 549,41 329,41 c -44,0 -93,5 -161,15 0,12 1,19 4,37 l 96,557 c 23,0 81,5 116,5 z"
                           stroke="#000000"
                           stroke-opacity="1"
                           stroke-width="8"
                           fill="#000000"
                           fill-opacity="1"
                           id="path168" />
                      </g>
                    </g>
                  </g>
                </g>
              </g>
            </g>
          </g>
        </g>
      </g>
    </g>
  </svg>
</svg>
