<?xml version="1.0" encoding="UTF-8" standalone="no"?>
<svg
   xmlns:dc="http://purl.org/dc/elements/1.1/"
   xmlns:cc="http://creativecommons.org/ns#"
   xmlns:rdf="http://www.w3.org/1999/02/22-rdf-syntax-ns#"
   xmlns:svg="http://www.w3.org/2000/svg"
   xmlns="http://www.w3.org/2000/svg"
   xmlns:sodipodi="http://sodipodi.sourceforge.net/DTD/sodipodi-0.dtd"
   xmlns:inkscape="http://www.inkscape.org/namespaces/inkscape"
   x="0"
   y="0"
   width="200"
   height="109"
   style="fill:none"
   version="1.1"
   id="svg232"
   sodipodi:docname="wz3.svg"
   inkscape:version="1.0.2-2 (e86c870879, 2021-01-15)">
  <metadata
     id="metadata238">
    <rdf:RDF>
      <cc:Work
         rdf:about="">
        <dc:format>image/svg+xml</dc:format>
        <dc:type
           rdf:resource="http://purl.org/dc/dcmitype/StillImage" />
        <dc:title></dc:title>
      </cc:Work>
    </rdf:RDF>
  </metadata>
  <defs
     id="defs236" />
  <sodipodi:namedview
     pagecolor="#ffffff"
     bordercolor="#666666"
     borderopacity="1"
     objecttolerance="10"
     gridtolerance="10"
     guidetolerance="10"
     inkscape:pageopacity="0"
     inkscape:pageshadow="2"
     inkscape:window-width="1800"
     inkscape:window-height="1106"
     id="namedview234"
     showgrid="false"
     inkscape:zoom="1.0747734"
     inkscape:cx="383.25156"
     inkscape:cy="131.34633"
     inkscape:window-x="-11"
     inkscape:window-y="-11"
     inkscape:window-maximized="1"
     inkscape:current-layer="svg232" />
  <svg
     class="role-diagram-draw-area"
     version="1.1"
     id="svg76"
     width="100%"
     height="100%">
    <g
       class="shapes-region"
       style="fill:none;stroke:#000000"
       id="g4">
      <g
         id="g2" />
    </g>
    <g
       id="g66">
      <g
         class="connection-group"
         id="g16">
        <g
           class="arrow-line"
           id="g14">
          <path
             class="connection real"
             stroke-dasharray="none"
             d="M 39,22.35 75.2,40.09"
             style="fill:none;fill-opacity:1;stroke:#000000;stroke-width:1"
             id="path6" />
          <g
             id="g12">
            <g
               stroke="#000"
               transform="rotate(-153.89,35.168535,9.6856715)"
               style="stroke:#000000;stroke-width:1"
               id="g10">
              <path
                 d="M 10.93,-3.29 Q 4.96,-0.45 0,0 4.96,0.45 10.93,3.29"
                 id="path8" />
            </g>
          </g>
        </g>
      </g>
      <g
         class="connection-group"
         id="g28">
        <g
           class="arrow-line"
           id="g26">
          <path
             class="connection real"
             stroke-dasharray="none"
             d="M 38,52 H 72.44"
             style="fill:none;fill-opacity:1;stroke:#000000;stroke-width:1"
             id="path18" />
          <g
             id="g24">
            <g
               stroke="#000"
               transform="rotate(180,30.60997,26)"
               style="stroke:#000000;stroke-width:1"
               id="g22">
              <path
                 d="M 10.93,-3.29 Q 4.96,-0.45 0,0 4.96,0.45 10.93,3.29"
                 id="path20" />
            </g>
          </g>
        </g>
      </g>
      <g
         class="connection-group"
         id="g40">
        <g
           class="arrow-line"
           id="g38">
          <path
             class="connection real"
             stroke-dasharray="none"
             d="M 124.81,42.39 153,31.69"
             style="fill:none;fill-opacity:1;stroke:#000000;stroke-width:1"
             id="path30" />
          <g
             id="g36">
            <g
               stroke="#000"
               transform="rotate(159.22,69.055327,30.705954)"
               style="stroke:#000000;stroke-width:1"
               id="g34">
              <path
                 d="M 10.93,-3.29 Q 4.96,-0.45 0,0 4.96,0.45 10.93,3.29"
                 id="path32" />
            </g>
          </g>
        </g>
      </g>
      <g
         class="connection-group"
         id="g52">
        <g
           class="arrow-line"
           id="g50">
          <path
             class="connection real"
             stroke-dasharray="none"
             d="M 124.93,61.28 153,71.53"
             style="fill:none;fill-opacity:1;stroke:#000000;stroke-width:1"
             id="path42" />
          <g
             id="g48">
            <g
               stroke="#000"
               transform="rotate(-159.95,78.350979,21.448942)"
               style="stroke:#000000;stroke-width:1"
               id="g46">
              <path
                 d="M 10.93,-3.29 Q 4.96,-0.45 0,0 4.96,0.45 10.93,3.29"
                 id="path44" />
            </g>
          </g>
        </g>
      </g>
      <g
         class="connection-group"
         id="g64">
        <g
           class="arrow-line"
           id="g62">
          <path
             class="connection real"
             stroke-dasharray="none"
             d="M 39,80.05 74.94,63.38"
             style="fill:none;fill-opacity:1;stroke:#000000;stroke-width:1"
             id="path54" />
          <g
             id="g60">
            <g
               stroke="#000"
               transform="rotate(155.13,23.579155,41.477217)"
               style="stroke:#000000;stroke-width:1"
               id="g58">
              <path
                 d="M 10.93,-3.29 Q 4.96,-0.45 0,0 4.96,0.45 10.93,3.29"
                 id="path56" />
            </g>
          </g>
        </g>
      </g>
    </g>
    <g
       id="g72">
      <g
         id="g70">
        <circle
           cx="99.5"
           cy="52"
           r="27.060118"
           style="fill:#4a90e2;fill-opacity:0.5;stroke:#000000;stroke-width:2"
           id="circle68" />
      </g>
    </g>
    <g
       id="g74" />
  </svg>
  <svg
     width="660"
     height="107"
     style="font-family:Asana-Math, Asana"
     version="1.1"
     id="svg230">
    <g
       id="g88">
      <g
         id="g78" />
      <g
         id="g84">
        <g
           id="g82">
          <text
             x="96.03125"
             y="45.125"
             style="font-style:normal;font-weight:400;font-size:12px;font-family:Arial, Helvetica, sans-serif;text-decoration:none;text-decoration-line:none;text-decoration-style:solid;text-decoration-color:#000000;dominant-baseline:text-before-edge;white-space:pre;fill:#000000;fill-opacity:1;stroke:none"
             id="text80" />
        </g>
      </g>
      <g
         id="g86" />
    </g>
    <g
       id="g116">
      <g
         id="g114">
        <g
           id="g112">
          <g
             id="g110">
            <g
               id="g108">
              <g
                 id="g94">
                <g
                   transform="translate(13,20.333328)"
                   id="g92">
                  <path
                     transform="scale(0.017,-0.017)"
                     d="m 525,42 c -56,0 -61,83 -60,124 1,85 29,167 72,239 l 62,13 c 3,17 9,34 14,49 -154,-6 -313,-4 -468,-1 -65,1 -79,-77 -98,-126 -1,-8 12,-9 16,-12 v 4 c 43,63 67,73 142,73 h 23 C 188,266 161,129 98,-2 v -10 c 20,6 55,13 72,25 41,128 70,261 98,392 H 495 C 438,318 397,213 395,108 c 0,-49 15,-123 76,-123 41,0 97,40 127,66 v 15 h -12 v 1 C 568,56 548,42 525,42 Z"
                     stroke="#000000"
                     stroke-opacity="1"
                     stroke-width="8"
                     fill="#000000"
                     fill-opacity="1"
                     id="path90" />
                </g>
              </g>
              <g
                 id="g106">
                <g
                   id="g104">
                  <g
                     id="g102">
                    <g
                       id="g100">
                      <g
                         transform="translate(24.604187,24.004156)"
                         id="g98">
                        <path
                           transform="scale(0.0119,-0.0119)"
                           d="m 316,-3 c 72,0 121,11 173,37 156,80 252,231 252,397 0,98 -30,168 -91,211 -46,33 -131,51 -226,50 l -204,-3 h -10 c -9,0 -12,0 -113,3 l -3,-28 53,-2 c 24,-1 35,-9 35,-27 0,-14 -4,-46 -9,-76 L 86,55 C 81,31 56,29 33,23 l -5,-26 93,3 h 55 c 35,0 106,-3 140,-3 z m 68,658 C 566,655 649,579 649,415 649,225 549,41 329,41 c -44,0 -93,5 -161,15 0,12 1,19 4,37 l 96,557 c 23,0 81,5 116,5 z"
                           stroke="#000000"
                           stroke-opacity="1"
                           stroke-width="8"
                           fill="#000000"
                           fill-opacity="1"
                           id="path96" />
                      </g>
                    </g>
                  </g>
                </g>
              </g>
            </g>
          </g>
        </g>
      </g>
    </g>
    <g
       id="g144">
      <g
         id="g142">
        <g
           id="g140">
          <g
             id="g138">
            <g
               id="g136">
              <g
                 id="g122">
                <g
                   transform="translate(12,57.333344)"
                   id="g120">
                  <path
                     transform="scale(0.017,-0.017)"
                     d="m 525,42 c -56,0 -61,83 -60,124 1,85 29,167 72,239 l 62,13 c 3,17 9,34 14,49 -154,-6 -313,-4 -468,-1 -65,1 -79,-77 -98,-126 -1,-8 12,-9 16,-12 v 4 c 43,63 67,73 142,73 h 23 C 188,266 161,129 98,-2 v -10 c 20,6 55,13 72,25 41,128 70,261 98,392 H 495 C 438,318 397,213 395,108 c 0,-49 15,-123 76,-123 41,0 97,40 127,66 v 15 h -12 v 1 C 568,56 548,42 525,42 Z"
                     stroke="#000000"
                     stroke-opacity="1"
                     stroke-width="8"
                     fill="#000000"
                     fill-opacity="1"
                     id="path118" />
                </g>
              </g>
              <g
                 id="g134">
                <g
                   id="g132">
                  <g
                     id="g130">
                    <g
                       id="g128">
                      <g
                         transform="translate(23.604187,61.004156)"
                         id="g126">
                        <path
                           transform="scale(0.0119,-0.0119)"
                           d="m 316,-3 c 72,0 121,11 173,37 156,80 252,231 252,397 0,98 -30,168 -91,211 -46,33 -131,51 -226,50 l -204,-3 h -10 c -9,0 -12,0 -113,3 l -3,-28 53,-2 c 24,-1 35,-9 35,-27 0,-14 -4,-46 -9,-76 L 86,55 C 81,31 56,29 33,23 l -5,-26 93,3 h 55 c 35,0 106,-3 140,-3 z m 68,658 C 566,655 649,579 649,415 649,225 549,41 329,41 c -44,0 -93,5 -161,15 0,12 1,19 4,37 l 96,557 c 23,0 81,5 116,5 z"
                           stroke="#000000"
                           stroke-opacity="1"
                           stroke-width="8"
                           fill="#000000"
                           fill-opacity="1"
                           id="path124" />
                      </g>
                    </g>
                  </g>
                </g>
              </g>
            </g>
          </g>
        </g>
      </g>
    </g>
    <g
       id="g172">
      <g
         id="g170">
        <g
           id="g168">
          <g
             id="g166">
            <g
               id="g164">
              <g
                 id="g150">
                <g
                   transform="translate(157,31.333344)"
                   id="g148">
                  <path
                     transform="scale(0.017,-0.017)"
                     d="m 525,42 c -56,0 -61,83 -60,124 1,85 29,167 72,239 l 62,13 c 3,17 9,34 14,49 -154,-6 -313,-4 -468,-1 -65,1 -79,-77 -98,-126 -1,-8 12,-9 16,-12 v 4 c 43,63 67,73 142,73 h 23 C 188,266 161,129 98,-2 v -10 c 20,6 55,13 72,25 41,128 70,261 98,392 H 495 C 438,318 397,213 395,108 c 0,-49 15,-123 76,-123 41,0 97,40 127,66 v 15 h -12 v 1 C 568,56 548,42 525,42 Z"
                     stroke="#000000"
                     stroke-opacity="1"
                     stroke-width="8"
                     fill="#000000"
                     fill-opacity="1"
                     id="path146" />
                </g>
              </g>
              <g
                 id="g162">
                <g
                   id="g160">
                  <g
                     id="g158">
                    <g
                       id="g156">
                      <g
                         transform="translate(168.60419,35.004156)"
                         id="g154">
                        <path
                           transform="scale(0.0119,-0.0119)"
                           d="m 316,-3 c 72,0 121,11 173,37 156,80 252,231 252,397 0,98 -30,168 -91,211 -46,33 -131,51 -226,50 l -204,-3 h -10 c -9,0 -12,0 -113,3 l -3,-28 53,-2 c 24,-1 35,-9 35,-27 0,-14 -4,-46 -9,-76 L 86,55 C 81,31 56,29 33,23 l -5,-26 93,3 h 55 c 35,0 106,-3 140,-3 z m 68,658 C 566,655 649,579 649,415 649,225 549,41 329,41 c -44,0 -93,5 -161,15 0,12 1,19 4,37 l 96,557 c 23,0 81,5 116,5 z"
                           stroke="#000000"
                           stroke-opacity="1"
                           stroke-width="8"
                           fill="#000000"
                           fill-opacity="1"
                           id="path152" />
                      </g>
                    </g>
                  </g>
                </g>
              </g>
            </g>
          </g>
        </g>
      </g>
    </g>
    <g
       id="g200">
      <g
         id="g198">
        <g
           id="g196">
          <g
             id="g194">
            <g
               id="g192">
              <g
                 id="g178">
                <g
                   transform="translate(157,82.333344)"
                   id="g176">
                  <path
                     transform="scale(0.017,-0.017)"
                     d="m 525,42 c -56,0 -61,83 -60,124 1,85 29,167 72,239 l 62,13 c 3,17 9,34 14,49 -154,-6 -313,-4 -468,-1 -65,1 -79,-77 -98,-126 -1,-8 12,-9 16,-12 v 4 c 43,63 67,73 142,73 h 23 C 188,266 161,129 98,-2 v -10 c 20,6 55,13 72,25 41,128 70,261 98,392 H 495 C 438,318 397,213 395,108 c 0,-49 15,-123 76,-123 41,0 97,40 127,66 v 15 h -12 v 1 C 568,56 548,42 525,42 Z"
                     stroke="#000000"
                     stroke-opacity="1"
                     stroke-width="8"
                     fill="#000000"
                     fill-opacity="1"
                     id="path174" />
                </g>
              </g>
              <g
                 id="g190">
                <g
                   id="g188">
                  <g
                     id="g186">
                    <g
                       id="g184">
                      <g
                         transform="translate(168.60419,86.004156)"
                         id="g182">
                        <path
                           transform="scale(0.0119,-0.0119)"
                           d="m 316,-3 c 72,0 121,11 173,37 156,80 252,231 252,397 0,98 -30,168 -91,211 -46,33 -131,51 -226,50 l -204,-3 h -10 c -9,0 -12,0 -113,3 l -3,-28 53,-2 c 24,-1 35,-9 35,-27 0,-14 -4,-46 -9,-76 L 86,55 C 81,31 56,29 33,23 l -5,-26 93,3 h 55 c 35,0 106,-3 140,-3 z m 68,658 C 566,655 649,579 649,415 649,225 549,41 329,41 c -44,0 -93,5 -161,15 0,12 1,19 4,37 l 96,557 c 23,0 81,5 116,5 z"
                           stroke="#000000"
                           stroke-opacity="1"
                           stroke-width="8"
                           fill="#000000"
                           fill-opacity="1"
                           id="path180" />
                      </g>
                    </g>
                  </g>
                </g>
              </g>
            </g>
          </g>
        </g>
      </g>
    </g>
    <g
       id="g228">
      <g
         id="g226">
        <g
           id="g224">
          <g
             id="g222">
            <g
               id="g220">
              <g
                 id="g206">
                <g
                   transform="translate(13,92.333344)"
                   id="g204">
                  <path
                     transform="scale(0.017,-0.017)"
                     d="m 525,42 c -56,0 -61,83 -60,124 1,85 29,167 72,239 l 62,13 c 3,17 9,34 14,49 -154,-6 -313,-4 -468,-1 -65,1 -79,-77 -98,-126 -1,-8 12,-9 16,-12 v 4 c 43,63 67,73 142,73 h 23 C 188,266 161,129 98,-2 v -10 c 20,6 55,13 72,25 41,128 70,261 98,392 H 495 C 438,318 397,213 395,108 c 0,-49 15,-123 76,-123 41,0 97,40 127,66 v 15 h -12 v 1 C 568,56 548,42 525,42 Z"
                     stroke="#000000"
                     stroke-opacity="1"
                     stroke-width="8"
                     fill="#000000"
                     fill-opacity="1"
                     id="path202" />
                </g>
              </g>
              <g
                 id="g218">
                <g
                   id="g216">
                  <g
                     id="g214">
                    <g
                       id="g212">
                      <g
                         transform="translate(24.604187,96.004156)"
                         id="g210">
                        <path
                           transform="scale(0.0119,-0.0119)"
                           d="m 316,-3 c 72,0 121,11 173,37 156,80 252,231 252,397 0,98 -30,168 -91,211 -46,33 -131,51 -226,50 l -204,-3 h -10 c -9,0 -12,0 -113,3 l -3,-28 53,-2 c 24,-1 35,-9 35,-27 0,-14 -4,-46 -9,-76 L 86,55 C 81,31 56,29 33,23 l -5,-26 93,3 h 55 c 35,0 106,-3 140,-3 z m 68,658 C 566,655 649,579 649,415 649,225 549,41 329,41 c -44,0 -93,5 -161,15 0,12 1,19 4,37 l 96,557 c 23,0 81,5 116,5 z"
                           stroke="#000000"
                           stroke-opacity="1"
                           stroke-width="8"
                           fill="#000000"
                           fill-opacity="1"
                           id="path208" />
                      </g>
                    </g>
                  </g>
                </g>
              </g>
            </g>
          </g>
        </g>
      </g>
    </g>
  </svg>
</svg>
